<svg xmlns="http://www.w3.org/2000/svg" viewBox="0 0 314.48 335.54"><defs><style>.cls-1{fill:#cae6ed;}.cls-2{fill:#fff;}.cls-3{fill:#004861;}.cls-4{fill:#1b2027;}.cls-5{fill:#21aed7;}.cls-6{fill:#ff2931;}</style></defs><title>icon-logo</title><g id="Слой_2" data-name="Слой 2"><g id="Logo"><path class="cls-1" d="M38.62,335.54a27.66,27.66,0,0,1-4-.29,28.76,28.76,0,0,1-14.89-7.36C11.18,320,8.32,308.76,7.42,300.73c-1.28-11.5.51-22.91,2.63-34.57,1.79-9.84,4.11-20.47,7.29-33.43q1.14-4.62,2.31-9.22c.62-2.46,1.25-4.93,1.86-7.39.17-.68.33-1.35.49-2,.5-2,1-4.18,1.65-6.29l.2-.65a11.58,11.58,0,0,0,.56-2.24,13,13,0,0,0-.13-2.14L24.2,202a124.85,124.85,0,0,1-.2-17.36c.22-5.74.48-10.65.82-15.24a31,31,0,0,1-7.66-8.51,32.74,32.74,0,0,1-2.67-27.63,38.71,38.71,0,0,1,4.25-8c.9-1.4,1.75-2.72,2.46-4.09a8.29,8.29,0,0,0-1-2Q19,117,17.8,114.81l-1.11-2C8.06,97.45-1,79.36.1,59.47,1.16,41.14,9.23,25.19,21.69,16.81c6.61-4.44,14.55-6.69,23.62-6.69,8,0,17,1.76,26.83,5.24,1.41.5,2.83,1,4.27,1.58,5.36,2,10.9,4.13,16.22,4.13a19.64,19.64,0,0,0,3.72-.35c3.83-.77,7.52-2.78,11.28-4.95,1.36-.79,2.72-1.6,4.08-2.41,2.84-1.68,5.77-3.42,8.77-5C130.31,3.14,139.36.42,148.16,0c.69,0,1.39,0,2.09,0,8.48,0,17.56,2.2,27,6.54a78.35,78.35,0,0,1,12.9,7.25c.36.26.72.54,1.08.83s.59.47.85.65c.8-.27,1.61-.61,2.47-1a34.09,34.09,0,0,1,3.9-1.45,33,33,0,0,1,9.23-1.39,25.61,25.61,0,0,1,6.8.9A28.29,28.29,0,0,1,226.81,20c5.67,5.67,9.94,13.22,13.42,23.75A152,152,0,0,1,246.48,73a340,340,0,0,1,1.86,60.93l-.05,1a19.43,19.43,0,0,1,4.67-2.56,27.49,27.49,0,0,1,10-1.83,40.71,40.71,0,0,1,14.23,2.84c1.26-6.14,3.43-12,8.19-16.19a18.19,18.19,0,0,1,12.06-4.47,17.88,17.88,0,0,1,10.9,3.65c6.61,5.09,8.08,14.91,3.33,22.36-3.11,4.87-8,7.07-12.24,9l-1.68.77a35.46,35.46,0,0,1,4.65,9.78,42.82,42.82,0,0,1-3.24,31.7,40.61,40.61,0,0,1-22,19,44.89,44.89,0,0,1-15.56,2.84q-.75,0-1.5,0c-4.57-.16-11-1.29-15.49-5.69-.29-.29-.57-.61-.85-.93-.45.12-.87.23-1.29.3a13.5,13.5,0,0,1-1.66.18c-.52,4.15-1.28,8.25-2,12.23-.21,1.13-.42,2.27-.62,3.4C235,239.37,230.17,263.11,222,286c-2.1,5.9-4.16,11-6.29,15.49-2.22,4.74-4.81,9.71-8.59,13.94-2.84,3.17-7.49,7-13.56,7a13.69,13.69,0,0,1-1.69-.1c-4.82-.58-9.3-3.47-13.71-8.83a73.26,73.26,0,0,1-8.59-13.91c-2.64-5.28-5-10.69-7.12-15.46l-.74-1.68c-2-4.46-4-9.08-6.1-13.56-1.13-2.41-2.34-4.75-3.69-7.33-.51-1-1-2-1.49-3-.23-.49-.46-1-.69-1.43l-1.37.82c-2.09,1.26-4.55,2.77-6.92,4.34-4,2.65-8.13,5.66-13,9.5-8.47,6.69-16.55,13.9-24.77,21.32L100,296.41c-7,6.3-14.15,12.81-21.54,18.93-8.3,6.86-16.54,13.35-26.24,17.28A36.22,36.22,0,0,1,38.62,335.54Z"/><path class="cls-2" d="M306.92,120.49a14.35,14.35,0,0,0-17.87.66c-5.3,4.68-6.79,12.19-7.72,18.86-7.91-3.78-17.41-6.28-25.91-3a15,15,0,0,0-5.25,3.36,8.15,8.15,0,0,0-1.86,2.61c-.28.69-.37,1.6-1.08,2a1.83,1.83,0,0,1-2.18-.45c-.62-.77-.29-1.93-.19-2.81.28-2.35.36-4.74.49-7.1a339.28,339.28,0,0,0-1.83-60.21A151.3,151.3,0,0,0,237.44,46c-2.68-8.07-6.37-16.08-12.46-22.17a24.56,24.56,0,0,0-10.58-6.57,25.58,25.58,0,0,0-13.85.48c-2.17.63-4.18,1.69-6.33,2.4a3,3,0,0,1-2.69-.09,28.81,28.81,0,0,1-2.72-2,75.1,75.1,0,0,0-12.25-6.88c-8.5-3.91-17.8-6.53-27.23-6.13-9.15.39-18,3.59-26,7.84-4.33,2.3-8.49,4.9-12.73,7.35-3.93,2.27-8,4.51-12.5,5.41C89,27.47,80.22,23.11,71.8,20.13c-14.84-5.26-32.95-8.36-46.87,1C12.05,29.79,6,45.7,5.09,60.7,4,79.14,12.41,96.23,21.18,111.88c1.18,2.1,2.34,4.21,3.53,6.3,1.06,1.85,2.12,3.75,1,5.84-2.05,4-5,7.34-6.49,11.59a28.91,28.91,0,0,0,2.33,24.23c2.09,3.46,7.62,20.18,7.41,26a122.46,122.46,0,0,0,.18,16.81,19.94,19.94,0,0,1,.21,3.62,17.67,17.67,0,0,1-.91,3.73c-.81,2.67-1.42,5.4-2.09,8.11-1.37,5.54-2.8,11.06-4.16,16.6-2.71,11-5.22,22.05-7.24,33.2-2,11-3.84,22.21-2.59,33.41,1,9,4.21,18.34,11,24.66a24.64,24.64,0,0,0,12.79,6.34c5.25.81,10.59-.4,15.45-2.37,9.41-3.83,17.43-10.25,25.19-16.66,8.61-7.13,16.84-14.7,25.14-22.18s16.35-14.69,25-21.5c4.3-3.39,8.69-6.68,13.26-9.7,2.32-1.53,4.69-3,7.06-4.42,1.11-.68,2.23-1.33,3.34-2,.87-.55,1.6-1,2.24.08,1.31,2.29,2.36,4.79,3.59,7.14s2.58,5,3.77,7.49c2.37,5.07,4.61,10.19,6.87,15.31s4.53,10.27,7,15.29a68.86,68.86,0,0,0,8.1,13.16c2.83,3.44,6.49,6.84,11.1,7.4s8.82-2.23,11.79-5.56c3.4-3.8,5.8-8.38,7.95-13,2.32-4.93,4.32-10,6.15-15.14,7.42-20.8,12.13-42.41,16-64.1,1-5.51,2.1-11,2.74-16.57.12-1.06.33-1.74,1.44-2.07a31.26,31.26,0,0,1,3.35-.41c1.08-.19,2.2-.76,3.3-.38s1.6,1.37,2.34,2.09c3.31,3.22,8.37,4.39,12.84,4.56a41.18,41.18,0,0,0,15.54-2.57,36.53,36.53,0,0,0,19.81-17.08,39,39,0,0,0,3-28.72,31.33,31.33,0,0,0-6.9-12.17c5.5-3.64,12.86-4.77,16.63-10.69C312.75,132.17,312.14,124.51,306.92,120.49Z"/><path class="cls-3" d="M162.7,105.73c-1.37-15.68-9.62-27.76-18.42-27s-14.83,14.1-13.46,29.78,9.62,27.77,18.42,27S164.07,121.41,162.7,105.73Zm-.95,8.16c-.89-11-8.1-19.45-16-18.76s-13.54,10.32-12.56,21.11c-4.62-17.8,1.7-36.54,11.92-36.54C154.5,79.7,163.15,96.24,161.75,113.89Z"/><path class="cls-3" d="M201.25,78.67c-8.82-.47-16.64,11.9-17.47,27.62s5.66,28.84,14.49,29.3,16.65-11.91,17.47-27.62S210.08,79.13,201.25,78.67Zm12.42,37.15c.62-11-5.35-20.3-13.28-20.72s-14.87,8.21-15.37,19.31c-3.09-27,16.15-46.68,26.2-26.37C215.22,96.13,215.63,107,213.67,115.82Z"/><ellipse class="cls-4" cx="147.44" cy="114.95" rx="7" ry="9" transform="translate(-9.46 13.29) rotate(-5)"/><circle class="cls-5" cx="149.76" cy="111.98" r="1.5"/><ellipse class="cls-4" cx="199.35" cy="114.97" rx="9" ry="7" transform="translate(74.11 308.03) rotate(-87)"/><circle class="cls-5" cx="202.76" cy="111.98" r="1.5"/><path class="cls-5" d="M135.24,161.31c10.31,19.42,20.25,54,35.15,54.94,15.54.94,25.26-34.82,35.67-51.53-9.71,5.81-22.64,9-36.64,8.13C156.05,172.05,144.07,167.74,135.24,161.31Z"/><path class="cls-6" d="M159.73,186.39a29.44,29.44,0,0,0-12.19,1.87c6.58,14.46,13.8,27.45,22.85,28,6,.36,11.08-4.7,15.7-12C180.41,194,170.89,187.07,159.73,186.39Z"/><path class="cls-3" d="M79.57,203.45c4.41,3.25,15.11,9.7,18.48,1.83,2.89-6.76-2.57-14-6.57-19A74.4,74.4,0,0,0,82,176.45c2.79,3.7,5.51,7.45,8,11.34,2.29,3.53,4.54,7.21,5.53,11.35.4,1.71.69,3.77-.46,5.27-1,1.35-2.85,1.58-4.44,1.41-4.13-.45-7.72-2.91-11.08-5.15-4.33-2.88-8.49-6-12.58-9.22A71.84,71.84,0,0,0,79.57,203.45Z"/><path class="cls-3" d="M65.77,224.83c2.81,1.15,6.37.92,8.6-1.29s2.4-5.86,2-8.9a43.9,43.9,0,0,0-3.28-11.42A74.78,74.78,0,0,0,67,191.45c1.56,4.28,3.07,8.58,4.38,12.94,1.25,4.17,2.48,8.48,2.28,12.88-.08,1.62-.4,3.44-1.78,4.49a5.34,5.34,0,0,1-4.93.45c-3.37-1.16-5.6-4.23-7.57-7A100.68,100.68,0,0,1,52,202.45a46.91,46.91,0,0,0,6.5,15.47C60.31,220.73,62.58,223.53,65.77,224.83Z"/><path class="cls-3" d="M306.92,120.49a14.35,14.35,0,0,0-17.87.66c-5.3,4.68-6.79,12.19-7.72,18.86-19.32-9.24-31-2.1-33,3-.28.69-.37,1.6-1.08,2a1.83,1.83,0,0,1-2.18-.45c-.62-.77-.29-1.93-.19-2.81a346.85,346.85,0,0,0-1.34-67.31c-2.11-16.61-6.7-38.83-18.54-50.67-12.26-12.27-24-5.91-30.76-3.69-2.39.79-2.93-.28-5.41-2.05-7.33-5.24-23.67-13.69-39.48-13-16.11.69-29.21,9.7-38.7,15.19-16.27,9.41-21.07,6.19-38.83-.1-14.84-5.26-32.95-8.36-46.87,1C12.05,29.79,6,45.7,5.09,60.7,4,79.14,12.41,96.23,21.18,111.88c4.47,8,5.89,9.59,4.57,12.14-2.05,4-5,7.34-6.49,11.59-4.24,12-.57,26,12.57,34.39l.5-1.23c-8.54-7-14-17-13.09-25.11a28.32,28.32,0,0,1,5.93-14.55c1.54-1.87,3.61-3.63,4-6.16.43-2.91-1.44-5.7-2.71-8.17C12.14,86.91,6.73,68.44,14.7,48.19c3.53-9,9.75-17.69,18.76-21.79,9.26-4.22,20.09-3,29.68-.65,10.54,2.54,20.85,8,32,6.86C113.66,30.72,126.22,8.82,151.8,8c13.65-.46,28,5.94,39.39,13.35-7.05,3.39-13.46,8.11-20.8,10.88-18.57,7-42-10.62-70.8,2.77A71.72,71.72,0,0,0,79,49.45c37.37-30.23,63.7-8.42,85.84-10.6,21.67-2.13,50.73-41.36,66.71,9.86,23.35,74.82-14.14,267.68-37.88,264.64-11.61-1.49-28.26-42.5-40.53-61.27,9.55-5.09,20-9,30.86-9.63-55-3.34-115.36,81.89-143.86,81.84-7.84,0-14-6.23-16.91-13-3.69-8.54-3.64-18.12-2.85-27.24,1.37-15.81,5.26-34,11.49-67.06a25.06,25.06,0,0,0,3.91,8.23c1.64,2.08,4.19,4,7,3.48,7.32-1.37,9.11-18.77,9.23-26.21-2.31,12.23-6.7,30.68-14.11,20.79-3.24-4.31-4.21-9.83-5-15a111.34,111.34,0,0,1-1.73-18.47c.1-13.3.4-23.36,10-31.13a31.77,31.77,0,0,1,12.78-5.17,27,27,0,0,1,5.75.14c13.11,1,19,6,40.3,7.84a53,53,0,0,1,5.48.58c4.57.88,3.17,5.92-.12,9.23-5,5-16.39,5.56-23.34,5.21,22.93,4,30.08-7,28.54-13-1.26-4.91-9.48-4.67-15.41-5.33-15.83-1.76-24.46-7.87-41.95-6.83A33.3,33.3,0,0,1,64.49,126.7C55.79,133.15,52,141.91,50.63,152a32.26,32.26,0,0,0-11.13,6c-7.69,5.84-9.3,14.44-9.79,18.26-1.93,15.11-.2,28.49-.32,30,0,0-5.73,22.59-7.16,28.44C13.69,269.43,4,308,23.45,326c29.27,27,70.45-35.42,116.8-66.07,4.22-2.78,8.56-5.29,10.4-6.44,2.36-1.48,1.77-.56,5.83,7.22,1.29,2.48,2.58,5,3.77,7.49,10.09,21.54,19.26,49.48,33.11,51.16,22.76,2.75,37.85-75.15,41.92-97.77,1-5.51,2.1-11,2.74-16.57.33-2.82,2.28-2,4.79-2.48,1.08-.19,2.2-.76,3.3-.38s1.6,1.37,2.34,2.09c6.53,6.37,19.72,5.17,28.38,2,25.85-9.5,30.94-41.62,15.87-58,5.5-3.64,12.86-4.77,16.63-10.69C312.75,132.17,312.14,124.51,306.92,120.49Zm-61.87,79.57-6.42,1.12c3-19.74,4.81-37.14,6-54.42.67.13,1.6-.16,2.06.51s.08,1.38.07,2c-.09,4.55,3.44,8.18,8.09,10.1-13.18,4.26-14.08,18.76-2.21,24.35C244,186.39,242.26,194.5,245.05,200.06Zm52.69-25.46c-1.87,17.32-13.71,29.14-31.83,31-19.12,1.92-22-11-16.43-16.68,2.59-2.65,6.33-3.62,9.84-4.34.48-.1,1.22-.2,1-.85-.4-1.23-3.77-.91-7.69-2.94-7.84-4.06-8.1-17.75,7.64-20.48.64-.11,2.51-.1,2.69-.94.29-1.26-3.69-1.58-4.36-1.74-14-3.38-10.82-19.48,5.82-19C281.78,139.17,300.18,152,297.74,174.6Zm9.93-39.22c-2.32,4.75-7,6.39-15.81,11.92a67.49,67.49,0,0,0-9.21-6.44c.88-4.74,2-11.26,6.26-16,3.48-3.88,9.38-5.6,14.2-3.22A10.53,10.53,0,0,1,307.67,135.38Z"/><path class="cls-3" d="M156.73,68a5.86,5.86,0,0,0-2.36-8c-5.57-3-28.43-1.37-34.52,26.56C128.84,64.08,145.86,60.2,156.73,68Z"/><path class="cls-3" d="M212.1,67.1c4.2,2.41,7.51,6.05,10.41,9.87-8.36-19.16-26.15-19-30.87-16.53a5.27,5.27,0,0,0-2.18,7.18C196.64,62.78,205.15,63.12,212.1,67.1Z"/><path class="cls-3" d="M122.75,150.15c4.57,6.41,13.24,15.82,19,28.75,4.49,10,9.53,24.57,17.3,33,8.1,8.76,17.45,9.07,26.27-3.18,7-9.77,10.81-21.88,16.82-32.2,7-12,13.15-18,13.67-18.11.67-.16,1.19.39,1.67.76a16.53,16.53,0,0,0,12.49,3c-10.48-3.33-16.52-8.94-20.7-18.64a15.4,15.4,0,0,0,3.1,10.77c.92,1.13,3.1,1.93,1,3.55-1.78,1.34-3.48,2.8-5.32,4.06-19.35,13.15-58.87,14.58-80.83-9.94-4.06-4.53-1.85-3.38.31-8.27A16,16,0,0,0,129,136c-4.51,10.24-10.77,15.47-20.75,18.6A17.67,17.67,0,0,0,122.75,150.15Zm80.31,18c-12.34,20.66-23.36,58.87-40.42,41.76-8.93-8.95-13.89-24.68-23.85-43.94C156.87,177.23,183.6,178.39,203.06,168.15Z"/><path class="cls-3" d="M175.56,132c.77-.57,10.73,4.66,10.73,10.52,0,4.93-10.94,10.42-11.55,9.6s8-6.53,7.95-9.5C182.64,139.39,175.09,132.35,175.56,132Z"/><path class="cls-3" d="M151.47,209.09c1.81,1.84,3.48,3.76,5.24,5.55a36.34,36.34,0,0,0,5.57,4.86,14.23,14.23,0,0,0,3.11,1.68,10.12,10.12,0,0,0,3.43.56,21.59,21.59,0,0,0,7.36-1.17,14.27,14.27,0,0,1-7.28,2.73,10.33,10.33,0,0,1-4.11-.32,14.62,14.62,0,0,1-3.64-1.83,25.43,25.43,0,0,1-5.61-5.49A37.81,37.81,0,0,1,151.47,209.09Z"/></g></g></svg>