<svg xmlns="http://www.w3.org/2000/svg" viewBox="0 0 60 60"><defs><style>.cls-1{fill:none;}.cls-2{fill:#21aed7;}.cls-3{fill:#64c7e3;}.cls-4{fill:#fff;}.cls-5{fill:#1e5c73;}.cls-6{fill:#cae6ed;}</style></defs><title>icon-diagnostic</title><g id="Слой_2" data-name="Слой 2"><g id="Icon_1"><rect class="cls-1" width="60" height="60"/><path class="cls-2" d="M35.64,14.69c-3.15-2.07-8.1.87-12.76.87s-9.62-2.94-12.77-.87S6.09,21,7.45,26.47a35.55,35.55,0,0,0,2.26,6.47,9.06,9.06,0,0,1,.84,4.1c-.12,3.93-.37,12,1,17.37.86,3.48,2,3.76,2.83,3.68,2.14-.23,2.35-5.73,2.7-8.33s1-10.48,5.83-10.48,5.48,7.86,5.82,10.48.56,8.1,2.7,8.33c.8.08,2-.2,2.83-3.68C35.57,49.05,35.32,41,35.2,37a9.06,9.06,0,0,1,.84-4.1,35.55,35.55,0,0,0,2.26-6.47C39.66,21,38.79,16.76,35.64,14.69Z"/><path class="cls-3" d="M39.27,25.49c-.4,1.57-.83,2.93-1.24,4.07s-.76,1.92-1.08,2.6c-.1.21-.19.43-.27.65a12.81,12.81,0,0,1-1.39.07A15.13,15.13,0,0,1,20.65,14a15.88,15.88,0,0,0,2.73.27h.31c4.71-.12,9.67-3,12.85-.88S40.69,19.89,39.27,25.49Z"/><polygon class="cls-4" points="29.85 21.61 32.12 19.58 31.31 18.89 32.93 14.79 32.62 18.61 33.63 19.44 32.62 20.96 31.97 21.1 31.74 22.26 33.23 24.66 34.09 24.66 33.63 28.67 33.38 25.44 32.62 25.48 31.26 22.63 27.56 22.81 25.06 24.7 27.56 22.12 29.85 21.61"/><rect class="cls-2" x="39.21" y="30.26" width="4.08" height="6.04" transform="translate(-9.19 16.99) rotate(-21)"/><rect class="cls-4" x="42.6" y="35.4" width="7" height="20.99" rx="1.36" ry="1.36" transform="translate(-13.39 19.57) rotate(-21)"/><rect class="cls-4" x="37.98" y="32.63" width="7" height="2.49" rx="1.24" ry="1.24" transform="translate(-9.39 17.12) rotate(-21)"/><path class="cls-4" d="M35.29,2.62a15.13,15.13,0,0,0,0,30.26,12.81,12.81,0,0,0,1.39-.07A15.13,15.13,0,0,0,35.29,2.62ZM38,29.56a11.81,11.81,0,0,1-2.74.32A12.16,12.16,0,1,1,38,29.56Z"/><path class="cls-5" d="M47.42,17.75A12.14,12.14,0,0,1,38,29.56c.41-1.14.84-2.5,1.24-4.07,1.42-5.6.52-10-2.73-12.14s-8.14.76-12.85.88a12.13,12.13,0,0,1,23.73,3.52Z"/><path class="cls-6" d="M44,14.15s-1.06-7.47-9.63-6.43A19.35,19.35,0,0,1,44,14.15Z"/></g></g></svg>