<svg xmlns="http://www.w3.org/2000/svg" viewBox="0 0 20 20"><defs><style>.cls-1{fill:#21aed7;}</style></defs><title>icon-facebook</title><g id="Слой_2" data-name="Слой 2"><g id="MOBILE"><g id="ФУТЕР_копия2_" data-name="ФУТЕР (копия2)"><g id="surface1"><path class="cls-1" d="M16.25,0H3.75A3.75,3.75,0,0,0,0,3.75v12.5A3.75,3.75,0,0,0,3.75,20h12.5A3.75,3.75,0,0,0,20,16.25V3.75A3.75,3.75,0,0,0,16.25,0Zm-.51,10.77H13.87V17.7H10.75V10.77H9.53V8.44h1.22V7c0-1.95.8-3.1,3.1-3.1h2.33V6.17H14.83c-.9,0-1,.33-1,1V8.44H16Z"/></g></g></g></g></svg>