<svg xmlns="http://www.w3.org/2000/svg" viewBox="0 0 60 60"><defs><style>.cls-1{fill:none;}.cls-2{fill:#21aed7;}.cls-3{fill:#fff;}</style></defs><title>icon-surgery</title><g id="Слой_2" data-name="Слой 2"><g id="Icon_4"><rect class="cls-1" width="60" height="60"/><path class="cls-2" d="M42.77,14.69c-3.15-2.07-8.11.87-12.77.87s-9.62-2.94-12.77-.87-4,6.34-2.65,11.78a36.49,36.49,0,0,0,2.25,6.47,8.94,8.94,0,0,1,.85,4.1c-.12,3.93-.38,12,1,17.37.87,3.48,2,3.76,2.84,3.68,2.13-.23,2.35-5.73,2.69-8.33s1-10.48,5.83-10.48,5.48,7.86,5.83,10.48.56,8.1,2.69,8.33c.81.08,2-.2,2.84-3.68C42.7,49.05,42.44,41,42.32,37a8.94,8.94,0,0,1,.85-4.1,36.49,36.49,0,0,0,2.25-6.47C46.79,21,45.92,16.76,42.77,14.69Z"/><path class="cls-3" d="M26.34,4,5.91,49.62a2.25,2.25,0,0,0,1.13,3H7a2.24,2.24,0,0,0,3-1.13L21,26.76a1.25,1.25,0,0,1,1.65-.63h0a.68.68,0,0,0,.93-.37C24.75,23,28.71,12.07,26.34,4Z"/></g></g></svg>