<svg xmlns="http://www.w3.org/2000/svg" viewBox="0 0 60 60"><defs><style>.cls-1{fill:none;}.cls-2{fill:#21aed7;}.cls-3{fill:#fff;}.cls-4{fill:#cae6ed;}</style></defs><title>icon-gum</title><g id="Слой_2" data-name="Слой 2"><g id="Icon_6"><rect class="cls-1" width="60" height="60"/><path class="cls-2" d="M45.42,26.47c-.17.68-.35,1.31-.53,1.91a31.87,31.87,0,0,1-1.72,4.56,8.93,8.93,0,0,0-.84,4.1c.12,3.93.37,12-1,17.37-.87,3.48-2,3.76-2.83,3.68-2.14-.23-2.35-5.73-2.7-8.33s-1-10.48-5.83-10.48-5.48,7.86-5.83,10.48-.56,8.1-2.69,8.33c-.8.08-2-.2-2.84-3.68C17.31,49.05,17.56,41,17.68,37a9.06,9.06,0,0,0-.84-4.1,32.94,32.94,0,0,1-1.73-4.56c-.18-.6-.36-1.23-.53-1.91-1.37-5.44-.5-9.71,2.65-11.78,2.54-1.66,6.24-.09,10,.59a15.2,15.2,0,0,0,2.76.28,15.31,15.31,0,0,0,2.77-.28c3.78-.68,7.47-2.25,10-.59C45.92,16.76,46.79,21,45.42,26.47Z"/><path class="cls-3" d="M49.78,58.67H10.22a1.29,1.29,0,0,1-1.08-2c2.84-4.41,3.61-11.53,2.61-16.09-1.16-5.33-.64-9.52,3.36-12.2a32.94,32.94,0,0,0,1.73,4.56,9.06,9.06,0,0,1,.84,4.1c-.12,3.93-.37,12,1,17.37.87,3.48,2,3.76,2.84,3.68,2.13-.23,2.35-5.73,2.69-8.33s1-10.48,5.83-10.48,5.49,7.86,5.83,10.48.56,8.1,2.7,8.33c.8.08,2-.2,2.83-3.68C42.7,49.05,42.45,41,42.33,37a8.93,8.93,0,0,1,.84-4.1,31.87,31.87,0,0,0,1.72-4.56c4,2.68,4.52,6.87,3.36,12.2-1,4.56-.23,11.68,2.61,16.09A1.29,1.29,0,0,1,49.78,58.67Z"/><path class="cls-4" d="M43.17,32.94a8.93,8.93,0,0,0-.84,4.1c.12,3.93.37,12-1,17.37-.87,3.48-2,3.76-2.83,3.68-2.14-.23-2.35-5.73-2.7-8.33s-1-10.48-5.83-10.48-5.48,7.86-5.83,10.48-.56,8.1-2.69,8.33c-.8.08-2-.2-2.84-3.68C17.31,49.05,17.56,41,17.68,37a9.06,9.06,0,0,0-.84-4.1,32.94,32.94,0,0,1-1.73-4.56C18.48,26.12,24.61,30,30,30c4.55,0,10.86-4.31,14.89-1.62A31.87,31.87,0,0,1,43.17,32.94Z"/></g></g></svg>