<svg xmlns="http://www.w3.org/2000/svg" viewBox="0 0 209.26 56.2"><defs><style>.cls-1{font-size:26px;fill:#004861;font-family:PTSans-NarrowBold, PT Sans Narrow;font-weight:700;}.cls-2{letter-spacing:-0.01em;}.cls-3{letter-spacing:-0.03em;}.cls-4{letter-spacing:-0.07em;}.cls-5{letter-spacing:-0.03em;}.cls-6{letter-spacing:-0.02em;}.cls-7{font-size:13px;font-family:Roboto-Light, Roboto Light;}.cls-7,.cls-9{fill:#21aed7;}.cls-8{letter-spacing:-0.01em;}</style></defs><title>Ресурс 2</title><g id="Слой_2" data-name="Слой 2"><g id="MOBILE"><text class="cls-1" transform="translate(52.93 30.13)"><tspan class="cls-2">С</tspan><tspan class="cls-3" x="11.73" y="0">Т</tspan><tspan x="23.27" y="0">ОМ</tspan><tspan class="cls-4" x="54.91" y="0">А</tspan><tspan class="cls-5" x="66.22" y="0">Т</tspan><tspan class="cls-6" x="77.77" y="0">О</tspan><tspan x="91.75" y="0">ЛОГИЯ</tspan></text><text class="cls-7" transform="translate(53.84 45.03)">На Академика О<tspan class="cls-8" x="97.77" y="0">б</tspan><tspan x="104.82" y="0">разцова</tspan></text><path class="cls-9" d="M36.68.94c-4-2.64-10.31,1.11-16.25,1.11S8.18-1.7,4.17.94-.94,9,.8,15.93a46.47,46.47,0,0,0,2.87,8.25,11.55,11.55,0,0,1,1.07,5.21c-.15,5-.47,15.29,1.23,22.11,1.1,4.43,2.58,4.79,3.61,4.68,2.71-.28,3-7.29,3.43-10.6s1.24-13.34,7.42-13.34,7,10,7.42,13.34.71,10.32,3.43,10.6c1,.11,2.5-.25,3.61-4.68,1.7-6.82,1.38-17.11,1.23-22.11a11.29,11.29,0,0,1,1.07-5.21,46.47,46.47,0,0,0,2.87-8.25C41.8,9,40.69,3.58,36.68.94ZM36.5,12.33a.7.7,0,0,1-.7.7H31.43V17.4a.7.7,0,0,1-.7.7H28.88a.7.7,0,0,1-.7-.7V13H23.8a.7.7,0,0,1-.7-.7V10.48a.7.7,0,0,1,.7-.7h4.38V5.4a.7.7,0,0,1,.7-.7h1.85a.7.7,0,0,1,.7.7V9.78H35.8a.7.7,0,0,1,.7.7Z"/></g></g></svg>