<svg xmlns="http://www.w3.org/2000/svg" viewBox="0 0 212.33 59.5"><defs><style>.cls-1{fill:#004861;}.cls-2{font-size:16px;font-family:Roboto-Light, Roboto Light;}.cls-2,.cls-3{fill:#21aed7;}.cls-4{fill:none;}</style></defs><title>TOP_MENU_Logo_K28</title><g id="Слой_2" data-name="Слой 2"><g id="DESKTOP"><g id="TOP_MENU"><path class="cls-1" d="M66.42,30.58a4.17,4.17,0,0,1-1.81.83,10.16,10.16,0,0,1-2.25.26,7,7,0,0,1-2.61-.48,5.22,5.22,0,0,1-2.12-1.6,8.23,8.23,0,0,1-1.43-2.94,16.73,16.73,0,0,1-.52-4.47,15.21,15.21,0,0,1,.59-4.58,8,8,0,0,1,1.53-2.89A5.34,5.34,0,0,1,60,13.18a7.36,7.36,0,0,1,2.47-.44,10.5,10.5,0,0,1,2.23.21,9,9,0,0,1,1.54.47l-.65,2.88a4.84,4.84,0,0,0-1.15-.4,8.06,8.06,0,0,0-1.58-.14,3.05,3.05,0,0,0-2.75,1.56,9.49,9.49,0,0,0-1,4.89,14,14,0,0,0,.23,2.61,6.44,6.44,0,0,0,.7,2,3.74,3.74,0,0,0,1.22,1.33,3.28,3.28,0,0,0,1.78.46,4.49,4.49,0,0,0,1.56-.24,6.4,6.4,0,0,0,1.17-.59Z"/><path class="cls-1" d="M78.77,16.12H74.45V31.31H71.18V16.12H66.86v-3H78.77Z"/><path class="cls-1" d="M79,22.21q0-4.63,1.59-7a5.39,5.39,0,0,1,4.83-2.42,6,6,0,0,1,2.92.67,5.4,5.4,0,0,1,2,1.89,9.43,9.43,0,0,1,1.16,3,18.85,18.85,0,0,1,.37,3.92q0,4.62-1.62,7a5.45,5.45,0,0,1-4.83,2.42A6,6,0,0,1,82.45,31a5.48,5.48,0,0,1-2-1.9,8.88,8.88,0,0,1-1.14-3A18.75,18.75,0,0,1,79,22.21Zm3.43,0a20.32,20.32,0,0,0,.16,2.56,7.78,7.78,0,0,0,.52,2A3.7,3.7,0,0,0,84,28.16a2,2,0,0,0,1.39.49,2.43,2.43,0,0,0,2.27-1.53,11.87,11.87,0,0,0,.75-4.91,18.16,18.16,0,0,0-.16-2.51,8.52,8.52,0,0,0-.5-2.06,3.49,3.49,0,0,0-.93-1.37,2.05,2.05,0,0,0-1.43-.51Q82.39,15.76,82.38,22.21Z"/><path class="cls-1" d="M105.39,21.92l.37-3.48h-.13l-1,3.12-3,6.39h-1.09l-3.15-6.42-1-3.15h-.15l.49,3.51v9.42H93.75V13.11h3.14l3.8,7.87.62,2.27h.11l.59-2.32,3.57-7.82h3.09v18.2h-3.28Z"/><path class="cls-1" d="M118.37,27.15h-4.29L113,31.31h-3.25L115,13h2.57l5.31,18.33h-3.43Zm-3.59-2.66h3l-1-4.23-.42-2.86h-.1l-.45,2.88Z"/><path class="cls-1" d="M133.27,16.12H129V31.31h-3.28V16.12h-4.31v-3h11.91Z"/><path class="cls-1" d="M133.45,22.21q0-4.63,1.58-7a5.4,5.4,0,0,1,4.84-2.42,5.9,5.9,0,0,1,2.91.67,5.32,5.32,0,0,1,2,1.89,9.2,9.2,0,0,1,1.16,3,18.82,18.82,0,0,1,.38,3.92q0,4.62-1.63,7a5.43,5.43,0,0,1-4.82,2.42,6.07,6.07,0,0,1-2.93-.66,5.53,5.53,0,0,1-2-1.9,8.89,8.89,0,0,1-1.15-3A19.49,19.49,0,0,1,133.45,22.21Zm3.43,0a18.6,18.6,0,0,0,.16,2.56,7.41,7.41,0,0,0,.52,2,3.7,3.7,0,0,0,.92,1.35,2,2,0,0,0,1.39.49,2.41,2.41,0,0,0,2.26-1.53,11.84,11.84,0,0,0,.76-4.91,19.87,19.87,0,0,0-.16-2.51,8.06,8.06,0,0,0-.51-2.06,3.48,3.48,0,0,0-.92-1.37,2.07,2.07,0,0,0-1.43-.51Q136.89,15.76,136.88,22.21Z"/><path class="cls-1" d="M155.65,16.12H152.9c-.13,3.3-.29,6.05-.5,8.26a14.77,14.77,0,0,1-1.19,5.05,3.91,3.91,0,0,1-.72,1,3.37,3.37,0,0,1-.81.62,2.91,2.91,0,0,1-.81.32,3.63,3.63,0,0,1-.76.09,4.61,4.61,0,0,1-1-.09,2.9,2.9,0,0,1-.78-.28l.36-3a1.27,1.27,0,0,0,.94,0,1.48,1.48,0,0,0,.78-.84,6.44,6.44,0,0,0,.55-1.68,27.47,27.47,0,0,0,.4-2.85c.11-1.16.2-2.53.26-4.13s.11-3.45.14-5.56h9.13v18.2h-3.28Z"/><path class="cls-1" d="M160.88,22.21q0-4.63,1.58-7a5.4,5.4,0,0,1,4.84-2.42,5.9,5.9,0,0,1,2.91.67,5.32,5.32,0,0,1,2,1.89,9.2,9.2,0,0,1,1.16,3,18.82,18.82,0,0,1,.38,3.92q0,4.62-1.63,7a5.43,5.43,0,0,1-4.82,2.42,6.07,6.07,0,0,1-2.93-.66,5.53,5.53,0,0,1-2-1.9,8.89,8.89,0,0,1-1.15-3A19.49,19.49,0,0,1,160.88,22.21Zm3.43,0a18.6,18.6,0,0,0,.16,2.56,7.41,7.41,0,0,0,.52,2,3.7,3.7,0,0,0,.92,1.35,2,2,0,0,0,1.39.49,2.41,2.41,0,0,0,2.26-1.53,11.84,11.84,0,0,0,.76-4.91,19.87,19.87,0,0,0-.16-2.51,8.06,8.06,0,0,0-.51-2.06,3.48,3.48,0,0,0-.92-1.37,2.07,2.07,0,0,0-1.43-.51Q164.32,15.76,164.31,22.21Z"/><path class="cls-1" d="M184.59,16.12H179V31.31h-3.28V13.11h8.92Z"/><path class="cls-1" d="M194.18,21.61l.26-2.58h-.13l-1,2.76-5.18,9.52h-2.57V13.11h3.27v9.51l-.28,2.65h.13l1-2.83,5.17-9.33h2.55v18.2h-3.28Z"/><path class="cls-1" d="M210.09,31.31h-3.27V24.05l-1.4.5-2.89,6.76h-3.77l3-6.19,1.3-1a4.14,4.14,0,0,1-2.29-1.7,6.48,6.48,0,0,1-.91-3.68,7.32,7.32,0,0,1,.47-2.79,4.41,4.41,0,0,1,1.33-1.79,5.27,5.27,0,0,1,2-1,10.85,10.85,0,0,1,2.63-.3c.22,0,.51,0,.84,0l1,.08c.35,0,.69.08,1,.14s.63.13.89.2ZM206.82,16a2.63,2.63,0,0,0-.47-.1,4.67,4.67,0,0,0-.57,0,3.21,3.21,0,0,0-1,.15,1.88,1.88,0,0,0-.81.49,2.48,2.48,0,0,0-.53.92,4.5,4.5,0,0,0-.19,1.43,3.3,3.3,0,0,0,.71,2.36,2.55,2.55,0,0,0,1.86.71h1Z"/><text class="cls-2" transform="translate(55.84 49.54)">На Калиновой 28</text><path class="cls-3" d="M38.68,2.12c-4-2.64-10.31,1.11-16.25,1.11S10.18-.52,6.17,2.12s-5.11,8.07-3.37,15a46,46,0,0,0,2.87,8.24,11.62,11.62,0,0,1,1.07,5.22c-.15,5-.47,15.29,1.23,22.11,1.1,4.43,2.58,4.79,3.61,4.68,2.71-.28,3-7.29,3.43-10.6s1.24-13.35,7.42-13.35,7,10,7.42,13.35.71,10.32,3.43,10.6c1,.11,2.5-.25,3.61-4.68,1.7-6.82,1.38-17.11,1.23-22.11a11.36,11.36,0,0,1,1.07-5.22,46,46,0,0,0,2.87-8.24C43.8,10.19,42.69,4.76,38.68,2.12ZM38.5,13.51a.7.7,0,0,1-.7.7H33.43v4.37a.7.7,0,0,1-.7.7H30.88a.7.7,0,0,1-.7-.7V14.21H25.8a.7.7,0,0,1-.7-.7V11.66a.7.7,0,0,1,.7-.7h4.38V6.58a.7.7,0,0,1,.7-.7h1.85a.7.7,0,0,1,.7.7V11H37.8a.7.7,0,0,1,.7.7Z"/><rect class="cls-4" width="212.33" height="59.5"/></g></g></g></svg>