<svg xmlns="http://www.w3.org/2000/svg" viewBox="0 0 20 20"><defs><style>.cls-1{fill:#21aed7;}</style></defs><title>icon-linledin</title><g id="Слой_2" data-name="Слой 2"><g id="MOBILE"><g id="ФУТЕР_копия2_" data-name="ФУТЕР (копия2)"><g id="surface1"><path class="cls-1" d="M16.25,0H3.75A3.75,3.75,0,0,0,0,3.75v12.5A3.75,3.75,0,0,0,3.75,20h12.5A3.75,3.75,0,0,0,20,16.25V3.75A3.75,3.75,0,0,0,16.25,0ZM6.18,17H3.08l0-9.31H6.17ZM4.55,6.46h0a1.57,1.57,0,1,1,0-3.14A1.56,1.56,0,0,1,6.26,4.89,1.58,1.58,0,0,1,4.55,6.46ZM17,17H13.82V11.92c0-1.22-.32-2.05-1.42-2.05A1.59,1.59,0,0,0,10.9,11a2.11,2.11,0,0,0-.1.74V17H7.65l0-9.31h3.15L10.8,9a2.91,2.91,0,0,1,2.68-1.51c2,0,3.47,1.3,3.47,4.09V17Z"/></g></g></g></g></svg>