<svg xmlns="http://www.w3.org/2000/svg" viewBox="0 0 60 60"><defs><style>.cls-1{fill:none;}.cls-2{fill:#21aed7;}.cls-3{fill:#fff;}</style></defs><title>icon-beauty_1</title><g id="Слой_2" data-name="Слой 2"><g id="Icon_2"><rect class="cls-1" width="60" height="60"/><path class="cls-2" d="M42.77,14.69c-3.15-2.07-8.11.87-12.77.87s-9.62-2.94-12.77-.87-4,6.34-2.65,11.78a36.49,36.49,0,0,0,2.25,6.47,8.94,8.94,0,0,1,.85,4.1c-.12,3.93-.38,12,1,17.37.87,3.48,2,3.76,2.84,3.68,2.13-.23,2.35-5.73,2.69-8.33s1-10.48,5.83-10.48,5.48,7.86,5.83,10.48.56,8.1,2.69,8.33c.81.08,2-.2,2.84-3.68C42.7,49.05,42.44,41,42.32,37a8.94,8.94,0,0,1,.85-4.1,36.49,36.49,0,0,0,2.25-6.47C46.79,21,45.92,16.76,42.77,14.69Z"/><path class="cls-3" d="M38.47,25.31a4.72,4.72,0,0,0-3.57-3.58.09.09,0,0,1,0-.17A4.72,4.72,0,0,0,38.47,18a.09.09,0,0,1,.18,0,4.75,4.75,0,0,0,3.57,3.58.09.09,0,0,1,0,.17,4.75,4.75,0,0,0-3.57,3.58A.09.09,0,0,1,38.47,25.31Z"/><path class="cls-3" d="M30.33,11.1a2.73,2.73,0,0,0-1.85-1.84.09.09,0,0,1,0-.18,2.77,2.77,0,0,0,1.85-1.85.09.09,0,0,1,.18,0,2.73,2.73,0,0,0,1.84,1.85.09.09,0,0,1,0,.18,2.7,2.7,0,0,0-1.84,1.84A.09.09,0,0,1,30.33,11.1Z"/><path class="cls-3" d="M47.19,9.53a4.18,4.18,0,0,0-2.8-2.81.15.15,0,0,1,0-.28,4.18,4.18,0,0,0,2.8-2.8.15.15,0,0,1,.28,0,4.18,4.18,0,0,0,2.81,2.8.15.15,0,0,1,0,.28,4.17,4.17,0,0,0-2.81,2.81A.15.15,0,0,1,47.19,9.53Z"/><path class="cls-3" d="M50.64,17.46A3,3,0,0,0,49,15.78a.21.21,0,0,1,0-.39,3,3,0,0,0,1.68-1.68.21.21,0,0,1,.39,0,3,3,0,0,0,1.68,1.68.21.21,0,0,1,0,.39A3,3,0,0,0,51,17.46.21.21,0,0,1,50.64,17.46Z"/></g></g></svg>