<svg xmlns="http://www.w3.org/2000/svg" viewBox="0 0 60 60"><defs><style>.cls-1{fill:none;}.cls-2{fill:#21aed7;}.cls-3{fill:#fff;}</style></defs><title>icon-child-dental</title><g id="Слой_2" data-name="Слой 2"><g id="Icon_3"><rect class="cls-1" width="60" height="60"/><path class="cls-2" d="M51.77,14.69c-3.15-2.07-8.11.87-12.77.87s-9.62-2.94-12.77-.87-4,6.34-2.65,11.78a36.49,36.49,0,0,0,2.25,6.47,8.94,8.94,0,0,1,.85,4.1c-.12,3.93-.38,12,1,17.37.87,3.48,2,3.76,2.84,3.68,2.13-.23,2.35-5.73,2.69-8.33s1-10.48,5.83-10.48,5.48,7.86,5.83,10.48.56,8.1,2.69,8.33c.81.08,2-.2,2.84-3.68C51.7,49.05,51.44,41,51.32,37a8.94,8.94,0,0,1,.85-4.1,36.49,36.49,0,0,0,2.25-6.47C55.79,21,54.92,16.76,51.77,14.69Z"/><path class="cls-3" d="M31.52,30.47c-2-1.32-5.16.55-8.12.55s-6.13-1.87-8.13-.55-2.56,4-1.69,7.49A22.32,22.32,0,0,0,15,42.09a5.71,5.71,0,0,1,.53,2.61c-.07,2.5-.24,7.64.62,11,.55,2.21,1.29,2.4,1.8,2.34,1.36-.14,1.5-3.64,1.72-5.3s.62-6.67,3.71-6.67,3.49,5,3.71,6.67.35,5.16,1.71,5.3c.51.06,1.25-.13,1.81-2.34.85-3.41.69-8.55.61-11a5.59,5.59,0,0,1,.54-2.61A23.24,23.24,0,0,0,33.21,38C34.08,34.51,33.53,31.79,31.52,30.47Z"/><path class="cls-2" d="M19.58,11a6.4,6.4,0,1,0-12.8,0c0,3.12,2.68,8.64,5.35,9.88l-1.07,2.3.14.06a1.35,1.35,0,0,0,.59.14,1.22,1.22,0,0,0,.56-.14,1.45,1.45,0,0,1,.57-.17,1.72,1.72,0,0,1,.58.17,1.8,1.8,0,0,0,.7.14,2.07,2.07,0,0,0,.69-.14,2.72,2.72,0,0,0,.38-.16l-1-2.19C16.94,19.61,19.58,14.09,19.58,11Z"/><path class="cls-3" d="M16.33,39.08a15.19,15.19,0,0,1-7.7-1.66A1.34,1.34,0,0,0,8,36H8l-.67-.41-.76-.46a.5.5,0,0,0-.69.16.55.55,0,0,0,0,.45.49.49,0,0,0-.49.8.49.49,0,0,0-.38.23.5.5,0,0,0,.17.69l.76.46.67.41h0a1.34,1.34,0,0,0,1.5-.08c1.48.87,4.05,1.8,8.23,1.8Z"/><path class="cls-3" d="M6.69,37.19a.35.35,0,0,1-.25-.1.37.37,0,0,1,0-.52,11.74,11.74,0,0,0,2.45-5.83,10.57,10.57,0,0,0-.28-3.86,5.19,5.19,0,0,1,0-3.26,4.46,4.46,0,0,1,3.77-3.14,19.5,19.5,0,0,1,2.18,0,.38.38,0,1,1,0,.75,20.05,20.05,0,0,0-2.05,0,3.75,3.75,0,0,0-3.15,2.66,4.49,4.49,0,0,0,0,2.83,11.49,11.49,0,0,1,.3,4.11A12.24,12.24,0,0,1,7,37.06.39.39,0,0,1,6.69,37.19Z"/><path class="cls-3" d="M8.46,10.33a3,3,0,0,1,2.42-3.7A16.5,16.5,0,0,0,8.46,10.33Z"/></g></g></svg>