<svg xmlns="http://www.w3.org/2000/svg" viewBox="0 0 60 60"><defs><style>.cls-1{fill:none;}.cls-2{fill:#21aed7;}.cls-3{fill:#cae6ed;}.cls-4{fill:#fff;}</style></defs><title>icon-teeth</title><g id="Слой_2" data-name="Слой 2"><g id="Icon_5"><rect class="cls-1" width="60" height="60"/><path class="cls-2" d="M45.42,26.47a34.93,34.93,0,0,1-2.25,6.47,8.93,8.93,0,0,0-.84,4.1c.12,3.93.37,12-1,17.37-.87,3.48-2,3.76-2.83,3.68-2.14-.23-2.35-5.73-2.7-8.33s-1-10.48-5.83-10.48-5.48,7.86-5.83,10.48-.56,8.1-2.69,8.33c-.8.08-2-.2-2.84-3.68C17.31,49.05,17.56,41,17.68,37a9.06,9.06,0,0,0-.84-4.1,35.55,35.55,0,0,1-2.26-6.47c-1.37-5.44-.5-9.71,2.65-11.78,2.38-1.56,5.79-.27,9.32.46l.69.13a15.2,15.2,0,0,0,2.76.28,15.31,15.31,0,0,0,2.77-.28l.69-.13c3.53-.73,6.93-2,9.31-.46C45.92,16.76,46.79,21,45.42,26.47Z"/><path class="cls-3" d="M39.51,50.68l-.36,0a40.92,40.92,0,0,0-.38-6.45A27.1,27.1,0,0,0,37.23,38a13.87,13.87,0,0,0-3.4-5.19c-.76-.73-1.58-1.39-2.44-2.08a13.36,13.36,0,0,1-1.29-1.16s-.05-.12-.1-.12-.07.09-.1.12a13.36,13.36,0,0,1-1.29,1.16c-.86.69-1.68,1.35-2.44,2.08A13.87,13.87,0,0,0,22.77,38a27.1,27.1,0,0,0-1.54,6.22,40.92,40.92,0,0,0-.38,6.45l-.36,0a42.26,42.26,0,0,1,.05-6.56,27.91,27.91,0,0,1,1.26-6.49,15.23,15.23,0,0,1,3.4-5.8c.77-.82,1.61-1.56,2.41-2.28a11,11,0,0,0,1.08-1.08,1.61,1.61,0,0,0,.46-.86v0l0-4.55a20,20,0,0,0-.68-4.14l-1.89-3.74.69.13a15.2,15.2,0,0,0,2.76.28,15.31,15.31,0,0,0,2.77-.28l.69-.13-1.89,3.72a19.62,19.62,0,0,0-.69,4.18l0,4.53a1.49,1.49,0,0,0,.46.89,11,11,0,0,0,1.08,1.08c.8.72,1.64,1.46,2.41,2.28a15.23,15.23,0,0,1,3.4,5.8,27.91,27.91,0,0,1,1.26,6.49A42.26,42.26,0,0,1,39.51,50.68Z"/><path class="cls-4" d="M50.2,5c0-.31-.06-.57-.1-.82a43.57,43.57,0,0,0-10-.35,25,25,0,0,1-7.27-.53V2.55a.67.67,0,0,0-.66-.67H27.9a.67.67,0,0,0-.66.67v5A2.26,2.26,0,0,0,29.5,9.78h0l.54,4.93.54-4.93h0a2.26,2.26,0,0,0,2.26-2.26V6.75c5.62,1.93,14.49,3,16.36,3.19a6.74,6.74,0,0,1,0-1.89C49.53,7.21,50.28,6.65,50.2,5Z"/></g></g></svg>