<svg xmlns="http://www.w3.org/2000/svg" viewBox="0 0 20 20"><defs><style>.cls-1{fill:#21aed7;}</style></defs><title>icon-instagram</title><g id="Слой_2" data-name="Слой 2"><g id="MOBILE"><g id="ФУТЕР_копия2_" data-name="ФУТЕР (копия2)"><path class="cls-1" d="M5.56,0A5.56,5.56,0,0,0,0,5.56v8.88A5.56,5.56,0,0,0,5.56,20h8.88A5.56,5.56,0,0,0,20,14.44V5.56A5.56,5.56,0,0,0,14.44,0ZM16.67,2.22a1.11,1.11,0,0,1,0,2.22,1.11,1.11,0,0,1,0-2.22ZM10,4.44A5.56,5.56,0,1,1,4.44,10,5.56,5.56,0,0,1,10,4.44Zm0,2.23A3.33,3.33,0,1,0,13.33,10,3.33,3.33,0,0,0,10,6.67Z"/></g></g></g></svg>