<svg xmlns="http://www.w3.org/2000/svg" viewBox="0 0 237.17 78.31"><defs><style>.cls-1{fill:none;}.cls-2{font-size:26px;font-family:PTSans-NarrowBold, PT Sans Narrow;font-weight:700;}.cls-12,.cls-2{fill:#004861;}.cls-3{letter-spacing:-0.01em;}.cls-4{letter-spacing:-0.03em;}.cls-5{letter-spacing:-0.07em;}.cls-6{letter-spacing:-0.03em;}.cls-7{letter-spacing:-0.02em;}.cls-8{font-size:13px;font-family:Roboto-Light, Roboto Light;}.cls-14,.cls-8{fill:#21aed7;}.cls-9{letter-spacing:-0.01em;}.cls-10{fill:#cae6ed;}.cls-11{fill:#fff;}.cls-13{fill:#1b2027;}.cls-15{fill:#ff242c;}</style></defs><title>main-logo</title><g id="Слой_2" data-name="Слой 2"><g id="DESKTOP"><g id="TOP_MENU"><rect class="cls-1" width="237.17" height="78.31"/><text class="cls-2" transform="translate(78.59 41.18)"><tspan class="cls-3">С</tspan><tspan class="cls-4" x="11.73" y="0">Т</tspan><tspan x="23.27" y="0">ОМ</tspan><tspan class="cls-5" x="54.91" y="0">А</tspan><tspan class="cls-6" x="66.22" y="0">Т</tspan><tspan class="cls-7" x="77.77" y="0">О</tspan><tspan x="91.75" y="0">ЛОГИЯ</tspan></text><text class="cls-8" transform="translate(79.5 56.08)">На Академика О<tspan class="cls-9" x="97.77" y="0">б</tspan><tspan x="104.82" y="0">разцова</tspan></text><path class="cls-10" d="M11.09,77.69a6.84,6.84,0,0,1-.91-.07A6.59,6.59,0,0,1,6.82,76,9.76,9.76,0,0,1,4,69.82,26.81,26.81,0,0,1,4.63,62c.41-2.23.93-4.63,1.65-7.55.17-.7.34-1.39.52-2.09l.42-1.67c0-.15.07-.3.11-.45.11-.47.23-.94.37-1.42l0-.15a2.37,2.37,0,0,0,.12-.5,2.09,2.09,0,0,0,0-.49l0-.17a28.27,28.27,0,0,1,0-3.92c0-1.3.11-2.41.19-3.44a7,7,0,0,1-1.73-1.92A7.44,7.44,0,0,1,5.63,32a8.82,8.82,0,0,1,1-1.8c.2-.32.39-.62.55-.93a1.66,1.66,0,0,0-.22-.45l-.55-1-.25-.44c-1.95-3.48-4-7.56-3.75-12C2.62,11.2,4.45,7.59,7.26,5.7A9.41,9.41,0,0,1,12.6,4.19a18.48,18.48,0,0,1,6,1.18l1,.36a10.8,10.8,0,0,0,3.66.93,3.86,3.86,0,0,0,.84-.08,8.6,8.6,0,0,0,2.55-1.11l.92-.55c.64-.38,1.31-.77,2-1.13a14.7,14.7,0,0,1,6.25-1.88h.48a14.67,14.67,0,0,1,6.09,1.48A17.88,17.88,0,0,1,45.31,5l.24.18.19.15a5,5,0,0,0,.56-.22,9,9,0,0,1,.88-.32,7.35,7.35,0,0,1,2.09-.31,5.49,5.49,0,0,1,1.53.2,6.4,6.4,0,0,1,2.79,1.71,13.21,13.21,0,0,1,3,5.36A35.08,35.08,0,0,1,58,18.38a76.93,76.93,0,0,1,.42,13.76v.23a4.43,4.43,0,0,1,1.05-.58,6.35,6.35,0,0,1,2.27-.41A9.07,9.07,0,0,1,65,32a6.43,6.43,0,0,1,1.85-3.66,4.13,4.13,0,0,1,2.73-1,4.05,4.05,0,0,1,2.46.83,3.82,3.82,0,0,1,.75,5,5.83,5.83,0,0,1-2.76,2l-.38.18a8,8,0,0,1,1,2.21,9.71,9.71,0,0,1-.73,7.15,9.2,9.2,0,0,1-5,4.29,10.09,10.09,0,0,1-3.52.65h-.33a5.26,5.26,0,0,1-3.5-1.29,2,2,0,0,1-.2-.21l-.28.07a1.82,1.82,0,0,1-.38,0c-.12.94-.29,1.86-.46,2.76,0,.26-.09.52-.14.77a92.05,92.05,0,0,1-3.65,14.62C52,67.83,51.56,69,51.08,70a12.41,12.41,0,0,1-1.94,3.15,4.21,4.21,0,0,1-3.06,1.57,2.36,2.36,0,0,1-.38,0,4.86,4.86,0,0,1-3.1-2,17,17,0,0,1-1.94-3.14c-.59-1.2-1.13-2.42-1.61-3.5l-.16-.37c-.45-1-.91-2.06-1.38-3.07-.25-.54-.53-1.07-.83-1.65-.12-.23-.23-.46-.34-.69s-.1-.21-.16-.32l-.31.19c-.47.28-1,.62-1.56,1-.9.59-1.83,1.28-2.93,2.14-1.92,1.51-3.74,3.14-5.6,4.82l-.84.76c-1.57,1.42-3.2,2.89-4.86,4.27A23.44,23.44,0,0,1,14.15,77,8.16,8.16,0,0,1,11.09,77.69Z"/><path class="cls-11" d="M71.68,29.12a3.22,3.22,0,0,0-4,.15c-1.2,1.05-1.54,2.75-1.75,4.26a7.46,7.46,0,0,0-5.85-.67,3.41,3.41,0,0,0-1.19.76,1.83,1.83,0,0,0-.42.58c-.06.16-.08.37-.24.46a.41.41,0,0,1-.49-.1c-.14-.18-.07-.44,0-.64.06-.53.08-1.07.1-1.6a76.31,76.31,0,0,0-.41-13.6A34.5,34.5,0,0,0,56,12.28a12.48,12.48,0,0,0-2.82-5,5.56,5.56,0,0,0-2.38-1.49,5.84,5.84,0,0,0-3.13.11c-.49.14-.95.38-1.43.54a.66.66,0,0,1-.61,0A5.24,5.24,0,0,1,45,6a17.07,17.07,0,0,0-2.77-1.55A13.41,13.41,0,0,0,36.09,3a14,14,0,0,0-5.87,1.77c-1,.52-1.91,1.11-2.87,1.66a9.23,9.23,0,0,1-2.83,1.22c-2.07.42-4-.57-5.94-1.24C15.23,5.26,11.14,4.56,8,6.68c-2.91,2-4.28,5.55-4.48,8.93-.24,4.17,1.65,8,3.64,11.56.26.48.53.95.79,1.42a1.35,1.35,0,0,1,.24,1.33,20.29,20.29,0,0,0-1.47,2.61A6.53,6.53,0,0,0,7.24,38a19.41,19.41,0,0,1,1.67,5.87,30.12,30.12,0,0,0,0,3.8,4.41,4.41,0,0,1,.05.81,3.65,3.65,0,0,1-.21.85c-.18.6-.32,1.22-.47,1.83-.31,1.25-.63,2.5-.94,3.75-.61,2.48-1.18,5-1.63,7.49A26.29,26.29,0,0,0,5.16,70a8.79,8.79,0,0,0,2.5,5.57A5.5,5.5,0,0,0,10.55,77,6.76,6.76,0,0,0,14,76.42a22.89,22.89,0,0,0,5.69-3.77c1.94-1.61,3.8-3.31,5.67-5s3.7-3.31,5.64-4.85c1-.77,2-1.51,3-2.19.52-.35,1.06-.68,1.59-1l.76-.46c.19-.12.36-.23.5,0,.3.52.54,1.08.81,1.61s.59,1.12.85,1.7c.54,1.14,1.05,2.3,1.56,3.46s1,2.31,1.59,3.45a15.12,15.12,0,0,0,1.83,3A4.09,4.09,0,0,0,46,74a3.2,3.2,0,0,0,2.67-1.25,12.06,12.06,0,0,0,1.79-2.93,36,36,0,0,0,1.39-3.42A90.21,90.21,0,0,0,55.5,51.94c.22-1.25.48-2.49.62-3.74,0-.24.07-.4.33-.47a6.15,6.15,0,0,1,.75-.09,1.5,1.5,0,0,1,.75-.09c.23.08.36.31.52.47a4.39,4.39,0,0,0,2.91,1,9.07,9.07,0,0,0,3.5-.58,8.22,8.22,0,0,0,4.48-3.86A8.79,8.79,0,0,0,70,38.13a7.1,7.1,0,0,0-1.56-2.75c1.24-.82,2.9-1.08,3.76-2.41A2.92,2.92,0,0,0,71.68,29.12Z"/><path class="cls-12" d="M39.11,25.78c-.31-3.54-2.17-6.27-4.16-6.09s-3.35,3.18-3,6.72,2.17,6.28,4.16,6.1S39.42,29.33,39.11,25.78Zm-.22,1.85c-.2-2.5-1.83-4.4-3.62-4.24s-3.06,2.33-2.83,4.77c-1-4,.38-8.26,2.69-8.26C37.26,19.9,39.21,23.64,38.89,27.63Z"/><path class="cls-12" d="M47.82,19.67c-2-.1-3.76,2.69-4,6.24s1.28,6.51,3.27,6.62,3.76-2.69,4-6.24S49.81,19.78,47.82,19.67Zm2.8,8.39c.14-2.49-1.21-4.58-3-4.68s-3.36,1.86-3.47,4.36c-.7-6.1,3.65-10.54,5.92-5.95A10,10,0,0,1,50.62,28.06Z"/><ellipse class="cls-13" cx="35.66" cy="27.87" rx="1.58" ry="2.03" transform="translate(-2.29 3.21) rotate(-5)"/><circle class="cls-11" cx="36.19" cy="27.19" r="0.34"/><ellipse class="cls-13" cx="47.39" cy="27.87" rx="2.03" ry="1.58" transform="translate(17.07 73.73) rotate(-87)"/><circle class="cls-11" cx="48.16" cy="27.19" r="0.34"/><path class="cls-14" d="M32.91,38.34c2.32,4.38,4.57,12.2,7.93,12.4,3.52.22,5.71-7.86,8.06-11.63a14.56,14.56,0,0,1-8.27,1.83A14.68,14.68,0,0,1,32.91,38.34Z"/><path class="cls-15" d="M38.44,44a6.75,6.75,0,0,0-2.76.42c1.49,3.27,3.12,6.2,5.16,6.32,1.35.09,2.51-1.06,3.55-2.71A7.39,7.39,0,0,0,38.44,44Z"/><path class="cls-12" d="M20.33,47.85c1,.74,3.42,2.19,4.18.42.65-1.53-.58-3.16-1.49-4.29a17.33,17.33,0,0,0-2.14-2.23c.63.84,1.25,1.69,1.81,2.57a8.24,8.24,0,0,1,1.25,2.56,1.41,1.41,0,0,1-.1,1.19,1.08,1.08,0,0,1-1,.32,5.91,5.91,0,0,1-2.5-1.16c-1-.66-1.91-1.36-2.84-2.09A16.55,16.55,0,0,0,20.33,47.85Z"/><path class="cls-12" d="M17.22,52.68a1.81,1.81,0,0,0,1.94-.29,2.36,2.36,0,0,0,.46-2,10.15,10.15,0,0,0-.74-2.58,17.27,17.27,0,0,0-1.39-2.66c.35,1,.69,1.94,1,2.93A9,9,0,0,1,19,51a1.32,1.32,0,0,1-.4,1,1.23,1.23,0,0,1-1.12.1,3.81,3.81,0,0,1-1.71-1.59,22.82,22.82,0,0,1-1.67-2.87,10.85,10.85,0,0,0,1.47,3.49A3.77,3.77,0,0,0,17.22,52.68Z"/><path class="cls-12" d="M71.68,29.12a3.22,3.22,0,0,0-4,.15c-1.2,1.05-1.54,2.75-1.75,4.26-4.36-2.09-7-.48-7.46.67-.06.16-.08.37-.24.46a.41.41,0,0,1-.49-.1c-.14-.18-.07-.44,0-.64a79.48,79.48,0,0,0-.31-15.2C56.89,15,55.85,10,53.17,7.28s-5.42-1.34-6.94-.84c-.54.18-.66-.06-1.22-.46C43.35,4.8,39.66,2.89,36.09,3s-6.6,2.19-8.74,3.43c-3.68,2.13-4.76,1.4-8.77,0C15.23,5.26,11.14,4.56,8,6.68c-2.91,2-4.28,5.55-4.48,8.93-.24,4.17,1.65,8,3.64,11.56,1,1.8,1.33,2.17,1,2.75a20.29,20.29,0,0,0-1.47,2.61A6.49,6.49,0,0,0,9.55,40.3L9.66,40c-1.92-1.58-3.16-3.83-2.95-5.67a6.33,6.33,0,0,1,1.34-3.29A3.19,3.19,0,0,0,9,29.67a3.28,3.28,0,0,0-.62-1.84c-3.23-6.3-4.45-10.47-2.65-15A8.8,8.8,0,0,1,9.92,7.87c2.09-1,4.54-.67,6.7-.15,2.38.57,4.71,1.81,7.23,1.55,4.18-.43,7-5.37,12.8-5.57,3.08-.1,6.32,1.34,8.89,3-1.59.76-3,1.83-4.7,2.45-4.19,1.59-9.48-2.39-16,.63a16.15,16.15,0,0,0-4.66,3.27c8.44-6.82,14.39-1.9,19.39-2.39S51.05,1.34,54.66,12.9c5.27,16.9-3.2,60.46-8.56,59.77-2.62-.33-6.38-9.59-9.15-13.83a17.18,17.18,0,0,1,7-2.18c-12.42-.75-26.06,18.5-32.49,18.49a4.46,4.46,0,0,1-3.82-3A12.71,12.71,0,0,1,7,66.05c.31-3.57,1.19-7.68,2.6-15.15a5.49,5.49,0,0,0,.88,1.86,1.74,1.74,0,0,0,1.58.79c1.65-.31,2.06-4.24,2.08-5.92-.52,2.76-1.51,6.93-3.18,4.69a7.52,7.52,0,0,1-1.14-3.39,25.37,25.37,0,0,1-.39-4.17c0-3,.09-5.28,2.26-7a7.19,7.19,0,0,1,2.89-1.17,6.28,6.28,0,0,1,1.3,0c3,.24,4.28,1.36,9.1,1.77.41,0,.83.06,1.24.13,1,.2.72,1.34,0,2.09-1.12,1.12-3.7,1.25-5.27,1.17,5.18.9,6.79-1.58,6.45-2.94-.29-1.11-2.14-1.05-3.48-1.2-3.58-.4-5.53-1.78-9.48-1.54a7.53,7.53,0,0,1,2.56-5.55,7.92,7.92,0,0,0-3.13,5.71,7.38,7.38,0,0,0-2.52,1.35,6.05,6.05,0,0,0-2.21,4.13A36.77,36.77,0,0,0,9,48.48s-1.29,5.11-1.62,6.43c-1.93,7.85-4.11,16.56.28,20.61,6.61,6.1,15.91-8,26.38-14.92,1-.63,1.93-1.2,2.35-1.46s.4-.12,1.31,1.63c.3.56.59,1.12.85,1.7C40.83,67.33,42.9,73.64,46,74c5.14.62,8.55-17,9.47-22.08.22-1.25.48-2.49.62-3.74.07-.64.52-.46,1.08-.56a1.5,1.5,0,0,1,.75-.09c.23.08.36.31.52.47,1.48,1.44,4.46,1.17,6.41.45,5.84-2.14,7-9.4,3.59-13.09,1.24-.82,2.9-1.08,3.76-2.41A2.92,2.92,0,0,0,71.68,29.12Zm-14,18-1.45.25c.67-4.46,1.08-8.39,1.36-12.29.15,0,.36,0,.47.12s0,.31,0,.44a2.6,2.6,0,0,0,1.83,2.29c-3,1-3.18,4.23-.5,5.5A2.59,2.59,0,0,0,57.71,47.09Zm11.9-5.75a7.56,7.56,0,0,1-7.19,7c-4.32.44-5-2.48-3.71-3.76a4.12,4.12,0,0,1,2.22-1c.11,0,.28-.05.23-.2s-.85-.2-1.74-.66c-1.77-.92-1.83-4,1.73-4.63.14,0,.56,0,.61-.21s-.84-.35-1-.39c-3.15-.76-2.44-4.4,1.31-4.29C66,33.34,70.16,36.24,69.61,41.34Zm2.24-8.86c-.52,1.07-1.58,1.44-3.57,2.69a15.91,15.91,0,0,0-2.08-1.45,7.25,7.25,0,0,1,1.41-3.62,2.77,2.77,0,0,1,3.21-.72A2.37,2.37,0,0,1,71.85,32.48Z"/><path class="cls-12" d="M37.76,17.26a1.31,1.31,0,0,0-.53-1.79c-1.26-.67-6.42-.31-7.8,6C31.46,16.38,35.31,15.5,37.76,17.26Z"/><path class="cls-12" d="M50.27,17.06a8.31,8.31,0,0,1,2.35,2.23c-1.89-4.33-5.91-4.29-7-3.73a1.19,1.19,0,0,0-.49,1.62A4.75,4.75,0,0,1,50.27,17.06Z"/><path class="cls-12" d="M30.09,35.81a34.55,34.55,0,0,1,4.3,6.5c1,2.26,2.15,5.55,3.9,7.45s3.94,2.05,5.94-.72c1.59-2.21,2.44-4.94,3.79-7.27a15.77,15.77,0,0,1,3.09-4.09c.15,0,.27.08.38.17a3.75,3.75,0,0,0,2.82.68,6.88,6.88,0,0,1-4.67-4.21,3.42,3.42,0,0,0,.7,2.43c.2.26.7.44.21.8s-.79.64-1.2.92c-4.37,3-13.3,3.29-18.26-2.25-.91-1-.42-.76.07-1.86a3.69,3.69,0,0,0,.33-1.73,6.92,6.92,0,0,1-4.69,4.2A4,4,0,0,0,30.09,35.81Zm18.13,4.07c-2.78,4.67-5.27,13.3-9.12,9.43-2-2-3.14-5.57-5.39-9.92A15.37,15.37,0,0,0,48.22,39.88Z"/><path class="cls-12" d="M42,31.72c.18-.13,2.43,1.05,2.43,2.37,0,1.12-2.47,2.36-2.61,2.17s1.81-1.47,1.79-2.14S41.91,31.8,42,31.72Z"/><path class="cls-12" d="M36.57,49.13c.41.41.79.85,1.19,1.25A8.08,8.08,0,0,0,39,51.48a3.24,3.24,0,0,0,.71.38,2.39,2.39,0,0,0,.77.12,4.76,4.76,0,0,0,1.66-.26,3.2,3.2,0,0,1-1.64.62,2.28,2.28,0,0,1-.93-.08,3,3,0,0,1-.82-.41,5.75,5.75,0,0,1-1.27-1.24A8.7,8.7,0,0,1,36.57,49.13Z"/></g></g></g></svg>