<svg xmlns="http://www.w3.org/2000/svg" viewBox="0 0 231.4 75.78"><defs><style>.cls-1{fill:#004861;}.cls-2{fill:#21aed7;}.cls-3{fill:#cae6ed;}.cls-4{fill:#fff;}.cls-5{fill:#1b2027;}.cls-6{fill:#ff242c;}</style></defs><title>main-logo</title><g id="Слой_2" data-name="Слой 2"><g id="DESKTOP"><g id="TOP_MENU"><path class="cls-1" d="M87.72,38.55a4.18,4.18,0,0,1-1.8.83,9.72,9.72,0,0,1-2.25.26,7,7,0,0,1-2.61-.48,5.09,5.09,0,0,1-2.12-1.6,7.94,7.94,0,0,1-1.43-2.93A16.46,16.46,0,0,1,77,30.15a15.17,15.17,0,0,1,.58-4.57,7.94,7.94,0,0,1,1.54-2.9,5.16,5.16,0,0,1,2.17-1.52,7,7,0,0,1,2.47-.44,10.38,10.38,0,0,1,2.22.2,9.09,9.09,0,0,1,1.55.47l-.65,2.89a4.51,4.51,0,0,0-1.16-.41,8,8,0,0,0-1.57-.14,3.06,3.06,0,0,0-2.76,1.56,9.61,9.61,0,0,0-1,4.89,14,14,0,0,0,.22,2.61,6.7,6.7,0,0,0,.7,2,3.58,3.58,0,0,0,1.22,1.33,3.3,3.3,0,0,0,1.78.47,4.25,4.25,0,0,0,1.56-.25,5.8,5.8,0,0,0,1.17-.58Z"/><path class="cls-1" d="M100.07,24.1H95.76V39.28H92.48V24.1H88.17v-3h11.9Z"/><path class="cls-1" d="M100.26,30.18c0-3.09.52-5.43,1.58-7a5.39,5.39,0,0,1,4.84-2.41,6.07,6.07,0,0,1,2.91.66,5.35,5.35,0,0,1,2,1.9,9.11,9.11,0,0,1,1.16,3,18.72,18.72,0,0,1,.38,3.91c0,3.08-.55,5.43-1.63,7a5.42,5.42,0,0,1-4.82,2.41,6,6,0,0,1-2.93-.66,5.39,5.39,0,0,1-2-1.9,8.88,8.88,0,0,1-1.14-3A19.49,19.49,0,0,1,100.26,30.18Zm3.43,0a20.4,20.4,0,0,0,.15,2.56,8.19,8.19,0,0,0,.52,2,3.72,3.72,0,0,0,.93,1.35,2,2,0,0,0,1.39.5,2.41,2.41,0,0,0,2.26-1.54,11.87,11.87,0,0,0,.75-4.91,20,20,0,0,0-.15-2.51,8.41,8.41,0,0,0-.51-2.05,3.59,3.59,0,0,0-.92-1.38,2.07,2.07,0,0,0-1.43-.51C104.68,23.73,103.69,25.88,103.69,30.18Z"/><path class="cls-1" d="M126.7,29.89l.36-3.48h-.13l-1,3.12-3,6.4h-1.1l-3.14-6.43-1-3.14h-.16l.49,3.51v9.41h-3.09V21.08h3.15L122,29l.63,2.26h.1l.6-2.31,3.56-7.83H130v18.2H126.7Z"/><path class="cls-1" d="M139.67,35.12h-4.29l-1.06,4.16h-3.25L136.34,21h2.58l5.3,18.33h-3.43Zm-3.59-2.65h3l-1-4.24-.42-2.86h-.1l-.44,2.89Z"/><path class="cls-1" d="M154.57,24.1h-4.32V39.28H147V24.1h-4.32v-3h11.91Z"/><path class="cls-1" d="M154.75,30.18c0-3.09.53-5.43,1.59-7a5.37,5.37,0,0,1,4.83-2.41,6.08,6.08,0,0,1,2.92.66,5.35,5.35,0,0,1,2,1.9,9.1,9.1,0,0,1,1.15,3,18.07,18.07,0,0,1,.38,3.91q0,4.62-1.62,7a5.44,5.44,0,0,1-4.83,2.41,6,6,0,0,1-2.92-.66,5.32,5.32,0,0,1-2-1.9,8.88,8.88,0,0,1-1.14-3A18.75,18.75,0,0,1,154.75,30.18Zm3.43,0a20.32,20.32,0,0,0,.16,2.56,7.78,7.78,0,0,0,.52,2,3.7,3.7,0,0,0,.92,1.35,2,2,0,0,0,1.39.5,2.42,2.42,0,0,0,2.27-1.54,11.87,11.87,0,0,0,.75-4.91,18.27,18.27,0,0,0-.16-2.51,8.43,8.43,0,0,0-.5-2.05,3.73,3.73,0,0,0-.93-1.38,2.05,2.05,0,0,0-1.43-.51Q158.19,23.73,158.18,30.18Z"/><path class="cls-1" d="M177,24.1H174.2c-.12,3.29-.29,6-.49,8.25a14.58,14.58,0,0,1-1.2,5.06,3.85,3.85,0,0,1-.72,1,3.45,3.45,0,0,1-.8.63,2.94,2.94,0,0,1-.82.31,3.62,3.62,0,0,1-.75.09,4.64,4.64,0,0,1-1-.09,3.6,3.6,0,0,1-.78-.27l.37-3a1.3,1.3,0,0,0,.93,0,1.47,1.47,0,0,0,.78-.85,6.44,6.44,0,0,0,.55-1.68,24.76,24.76,0,0,0,.4-2.84c.11-1.16.2-2.54.26-4.14s.11-3.45.15-5.56h9.12v18.2H177Z"/><path class="cls-1" d="M182.18,30.18c0-3.09.53-5.43,1.59-7a5.37,5.37,0,0,1,4.83-2.41,6.08,6.08,0,0,1,2.92.66,5.35,5.35,0,0,1,2,1.9,9.1,9.1,0,0,1,1.15,3,18.07,18.07,0,0,1,.38,3.91q0,4.62-1.62,7a5.44,5.44,0,0,1-4.83,2.41,6,6,0,0,1-2.92-.66,5.32,5.32,0,0,1-2-1.9,8.88,8.88,0,0,1-1.14-3A18.75,18.75,0,0,1,182.18,30.18Zm3.43,0a20.32,20.32,0,0,0,.16,2.56,7.78,7.78,0,0,0,.52,2,3.7,3.7,0,0,0,.92,1.35,2,2,0,0,0,1.39.5,2.42,2.42,0,0,0,2.27-1.54,11.87,11.87,0,0,0,.75-4.91,18.27,18.27,0,0,0-.16-2.51,8.43,8.43,0,0,0-.5-2.05,3.73,3.73,0,0,0-.93-1.38,2.05,2.05,0,0,0-1.43-.51Q185.62,23.73,185.61,30.18Z"/><path class="cls-1" d="M205.89,24.1h-5.64V39.28H197V21.08h8.91Z"/><path class="cls-1" d="M215.49,29.58l.26-2.57h-.13l-1,2.75-5.17,9.52h-2.58V21.08h3.28V30.6l-.29,2.65H210l1-2.84,5.17-9.33h2.55v18.2h-3.27Z"/><path class="cls-1" d="M231.4,39.28h-3.28V32l-1.4.49-2.89,6.76h-3.77l3-6.19,1.3-1a4.14,4.14,0,0,1-2.29-1.7,6.38,6.38,0,0,1-.91-3.68,7.23,7.23,0,0,1,.47-2.78,4.36,4.36,0,0,1,1.32-1.8,5.46,5.46,0,0,1,2.06-1,10.71,10.71,0,0,1,2.62-.3l.85,0c.34,0,.68,0,1,.07s.68.09,1,.15.64.12.9.19ZM228.12,24a1.92,1.92,0,0,0-.46-.11,5,5,0,0,0-.58,0,3.18,3.18,0,0,0-1,.14,1.77,1.77,0,0,0-.81.49,2.39,2.39,0,0,0-.53.93,4.43,4.43,0,0,0-.2,1.43,3.22,3.22,0,0,0,.72,2.35,2.48,2.48,0,0,0,1.86.71h1Z"/><path class="cls-2" d="M85.12,54.18h-.76V49.93H79.11v4.25h-.76V44.94h.76v4.34h5.25V44.94h.76Z"/><path class="cls-2" d="M91.68,54.18c-.05-.23-.08-.43-.11-.6a4.41,4.41,0,0,1,0-.52,3,3,0,0,1-1,.9,2.86,2.86,0,0,1-1.43.35,2.14,2.14,0,0,1-1.56-.53A1.88,1.88,0,0,1,87,52.35a1.76,1.76,0,0,1,.82-1.52A3.82,3.82,0,0,1,90,50.26h1.51v-.85a1.46,1.46,0,0,0-.47-1.16,1.94,1.94,0,0,0-1.32-.42,2.16,2.16,0,0,0-1.32.4,1.2,1.2,0,0,0-.52,1h-.7l0,0a1.66,1.66,0,0,1,.71-1.38,2.88,2.88,0,0,1,1.88-.6,2.78,2.78,0,0,1,1.83.57,2.05,2.05,0,0,1,.69,1.66V52.8a5.37,5.37,0,0,0,0,.7,3.91,3.91,0,0,0,.14.68Zm-2.49-.54a2.8,2.8,0,0,0,1.45-.38,2.34,2.34,0,0,0,.9-1V50.84H90a2.81,2.81,0,0,0-1.65.44,1.33,1.33,0,0,0-.62,1.1,1.21,1.21,0,0,0,.38.91A1.57,1.57,0,0,0,89.19,53.64Z"/><path class="cls-2" d="M102.66,51.6H98.42l-1,2.58h-.79l3.51-9.24h.72l3.49,9.24h-.79Zm-4-.68h3.73l-1.84-5h0Z"/><path class="cls-2" d="M107.46,51H106.4v3.15h-.77V47.31h.77v3h1l2.52-3h.92v0l-2.79,3.31,3.1,3.5v0h-1Z"/><path class="cls-2" d="M116.69,54.18c0-.23-.09-.43-.11-.6a4.41,4.41,0,0,1,0-.52,3.18,3.18,0,0,1-1,.9,2.83,2.83,0,0,1-1.43.35,2.14,2.14,0,0,1-1.56-.53,1.88,1.88,0,0,1-.55-1.43,1.76,1.76,0,0,1,.82-1.52,3.84,3.84,0,0,1,2.22-.57h1.52v-.85a1.47,1.47,0,0,0-.48-1.16,1.9,1.9,0,0,0-1.32-.42,2.16,2.16,0,0,0-1.32.4,1.2,1.2,0,0,0-.52,1h-.7v0a1.64,1.64,0,0,1,.7-1.38,2.88,2.88,0,0,1,1.88-.6,2.78,2.78,0,0,1,1.83.57,2.05,2.05,0,0,1,.69,1.66V52.8c0,.24,0,.47,0,.7a5.12,5.12,0,0,0,.14.68Zm-2.5-.54a2.77,2.77,0,0,0,1.45-.38,2.37,2.37,0,0,0,.91-1V50.84H115a2.86,2.86,0,0,0-1.66.44,1.33,1.33,0,0,0-.62,1.1,1.18,1.18,0,0,0,.39.91A1.52,1.52,0,0,0,114.19,53.64Z"/><path class="cls-2" d="M119.16,53.53A6,6,0,0,0,120,52.1a6.92,6.92,0,0,0,.4-2.31l.11-2.48h4.06v6.22h.71l-.06,2.67h-.7v-2h-5.16v2h-.66l-.06-2.67Zm2-3.74a7.67,7.67,0,0,1-.36,2.25,4.55,4.55,0,0,1-.78,1.49h3.8V48h-2.57Z"/><path class="cls-2" d="M129.36,54.31a2.75,2.75,0,0,1-2.15-1,3.46,3.46,0,0,1-.85-2.41V50.6a3.54,3.54,0,0,1,.85-2.44,2.61,2.61,0,0,1,2-1,2.53,2.53,0,0,1,2,.8,3.05,3.05,0,0,1,.72,2.13v.65h-4.85V51a3,3,0,0,0,.62,1.94,2,2,0,0,0,1.62.78,3.37,3.37,0,0,0,1.21-.2,2.4,2.4,0,0,0,.86-.57l.32.53a2.83,2.83,0,0,1-1,.64A3.78,3.78,0,0,1,129.36,54.31Zm-.1-6.48a1.81,1.81,0,0,0-1.41.65,2.65,2.65,0,0,0-.67,1.61v0h4v-.19a2.22,2.22,0,0,0-.53-1.5A1.81,1.81,0,0,0,129.26,47.83Z"/><path class="cls-2" d="M137.25,53.11h0l2.71-5.8h.94v6.87h-.76V48.63h0l-2.6,5.55H137l-2.65-5.68h0v5.67h-.75V47.31h1Z"/><path class="cls-2" d="M147.48,47.31h.76v6.87h-.76v-5.6l0,0-3.67,5.62H143V47.31h.75v5.61h0Z"/><path class="cls-2" d="M152.14,51h-1.06v3.15h-.76V47.31h.76v3h1l2.53-3h.91v0l-2.78,3.31,3.09,3.5v0h-1Z"/><path class="cls-2" d="M161.37,54.18c-.05-.23-.09-.43-.11-.6a4.41,4.41,0,0,1,0-.52,3.08,3.08,0,0,1-1,.9,2.83,2.83,0,0,1-1.43.35,2.13,2.13,0,0,1-1.55-.53,1.85,1.85,0,0,1-.56-1.43,1.76,1.76,0,0,1,.82-1.52,3.84,3.84,0,0,1,2.22-.57h1.52v-.85a1.47,1.47,0,0,0-.48-1.16,1.9,1.9,0,0,0-1.32-.42,2.16,2.16,0,0,0-1.32.4,1.23,1.23,0,0,0-.52,1h-.7v0a1.64,1.64,0,0,1,.7-1.38,2.88,2.88,0,0,1,1.88-.6,2.78,2.78,0,0,1,1.83.57,2.05,2.05,0,0,1,.69,1.66V52.8c0,.24,0,.47,0,.7a5.12,5.12,0,0,0,.14.68Zm-2.5-.54a2.77,2.77,0,0,0,1.45-.38,2.37,2.37,0,0,0,.91-1V50.84H159.7a2.86,2.86,0,0,0-1.66.44,1.31,1.31,0,0,0-.61,1.1,1.17,1.17,0,0,0,.38.91A1.54,1.54,0,0,0,158.87,53.64Z"/><path class="cls-2" d="M174.13,50.31a4.22,4.22,0,0,1-1,2.9,3.36,3.36,0,0,1-2.64,1.1,3.26,3.26,0,0,1-2.59-1.1,4.27,4.27,0,0,1-1-2.9v-1.5a4.21,4.21,0,0,1,1-2.89,3.24,3.24,0,0,1,2.59-1.11,3.33,3.33,0,0,1,2.63,1.11,4.17,4.17,0,0,1,1,2.89Zm-.76-1.51a3.63,3.63,0,0,0-.76-2.41,2.58,2.58,0,0,0-2.1-.92,2.5,2.5,0,0,0-2.06.92,3.73,3.73,0,0,0-.74,2.41v1.52a3.77,3.77,0,0,0,.74,2.43,2.51,2.51,0,0,0,2.06.92,2.57,2.57,0,0,0,2.11-.92,3.68,3.68,0,0,0,.75-2.43Z"/><path class="cls-2" d="M178.67,47.77a2.77,2.77,0,0,1,2.13.86,3.1,3.1,0,0,1,.8,2.21v.21a3.31,3.31,0,0,1-.83,2.35,3.13,3.13,0,0,1-4.41,0,3.37,3.37,0,0,1-.83-2.35v-1a5.47,5.47,0,0,1,.83-3.19,3.27,3.27,0,0,1,2.25-1.45A3.89,3.89,0,0,0,180,45a.79.79,0,0,0,.4-.71H181l0,0a1.3,1.3,0,0,1-.53,1.22,4.23,4.23,0,0,1-1.68.51,2.63,2.63,0,0,0-1.66.83,3.23,3.23,0,0,0-.81,1.93l0,0a2.84,2.84,0,0,1,1-.81A3.08,3.08,0,0,1,178.67,47.77Zm-.11.65a2.05,2.05,0,0,0-1.67.71,2.55,2.55,0,0,0-.6,1.71v.21a2.88,2.88,0,0,0,.6,1.86,2.23,2.23,0,0,0,3.35,0,2.88,2.88,0,0,0,.6-1.86v-.21a2.56,2.56,0,0,0-.6-1.72A2.11,2.11,0,0,0,178.56,48.42Z"/><path class="cls-2" d="M188.49,50.94a3.93,3.93,0,0,1-.7,2.46,2.26,2.26,0,0,1-1.92.91A2.83,2.83,0,0,1,184.6,54a2.28,2.28,0,0,1-.88-.78v3.56H183V47.31h.64l.09,1.07a2.42,2.42,0,0,1,.89-.88,2.5,2.5,0,0,1,1.28-.31,2.22,2.22,0,0,1,1.93,1,4.45,4.45,0,0,1,.7,2.63Zm-.76-.15a3.91,3.91,0,0,0-.52-2.13,1.7,1.7,0,0,0-1.52-.83,2,2,0,0,0-1.25.37,2.21,2.21,0,0,0-.72.95v3.3a2,2,0,0,0,.75.89,2.17,2.17,0,0,0,1.23.33,1.72,1.72,0,0,0,1.51-.75,3.42,3.42,0,0,0,.52-2Z"/><path class="cls-2" d="M194.55,54.18c-.05-.23-.09-.43-.11-.6a4.41,4.41,0,0,1,0-.52,3.18,3.18,0,0,1-1,.9,2.83,2.83,0,0,1-1.43.35,2.14,2.14,0,0,1-1.56-.53,1.88,1.88,0,0,1-.55-1.43,1.76,1.76,0,0,1,.82-1.52,3.84,3.84,0,0,1,2.22-.57h1.52v-.85a1.47,1.47,0,0,0-.48-1.16,1.9,1.9,0,0,0-1.32-.42,2.16,2.16,0,0,0-1.32.4,1.2,1.2,0,0,0-.52,1h-.7v0a1.64,1.64,0,0,1,.7-1.38,2.88,2.88,0,0,1,1.88-.6,2.78,2.78,0,0,1,1.83.57,2.05,2.05,0,0,1,.69,1.66V52.8c0,.24,0,.47,0,.7a5.12,5.12,0,0,0,.14.68Zm-2.5-.54a2.77,2.77,0,0,0,1.45-.38,2.37,2.37,0,0,0,.91-1V50.84h-1.53a2.86,2.86,0,0,0-1.66.44,1.33,1.33,0,0,0-.62,1.1,1.18,1.18,0,0,0,.39.91A1.52,1.52,0,0,0,192.05,53.64Z"/><path class="cls-2" d="M202,49.13a1.39,1.39,0,0,1-.31.9,2,2,0,0,1-.88.62,1.83,1.83,0,0,1,1,.6,1.57,1.57,0,0,1,.34,1,1.71,1.71,0,0,1-.72,1.47,3.1,3.1,0,0,1-1.9.53,3.2,3.2,0,0,1-1.86-.53,1.63,1.63,0,0,1-.76-1.51v0h.71a1.23,1.23,0,0,0,.54,1,2.14,2.14,0,0,0,1.36.42,2.26,2.26,0,0,0,1.37-.37,1.19,1.19,0,0,0,.48-1,1.12,1.12,0,0,0-.45-1,2.43,2.43,0,0,0-1.38-.31h-1.05v-.65h1.05A2.16,2.16,0,0,0,200.8,50a1.1,1.1,0,0,0,.4-.9,1.11,1.11,0,0,0-.43-.92,2,2,0,0,0-1.3-.36,2.19,2.19,0,0,0-1.27.37,1.13,1.13,0,0,0-.52,1H197l0,0a1.56,1.56,0,0,1,.71-1.39,3,3,0,0,1,1.8-.54,3,3,0,0,1,1.83.5A1.7,1.7,0,0,1,202,49.13Z"/><path class="cls-2" d="M203.81,47.31h.76v6.22h3.7V47.31H209v6.22h.7l-.06,2.69H209v-2h-5.16Z"/><path class="cls-2" d="M210.75,50.65a3.64,3.64,0,0,1,.83-2.49,3,3,0,0,1,4.41,0,3.69,3.69,0,0,1,.83,2.49v.2a3.73,3.73,0,0,1-.83,2.5,3,3,0,0,1-4.41,0,3.68,3.68,0,0,1-.83-2.5Zm.76.2a3.25,3.25,0,0,0,.6,2,2.12,2.12,0,0,0,3.35,0,3.25,3.25,0,0,0,.6-2v-.21a3.28,3.28,0,0,0-.6-2,2,2,0,0,0-1.68-.82,2,2,0,0,0-1.67.82,3.28,3.28,0,0,0-.6,2Z"/><path class="cls-2" d="M218.48,54.18V47.31H221a3.71,3.71,0,0,1,2,.46,1.55,1.55,0,0,1,.71,1.38,1.43,1.43,0,0,1-.32.92,1.75,1.75,0,0,1-.9.58,1.85,1.85,0,0,1,1.08.58,1.48,1.48,0,0,1,.41,1.05,1.6,1.6,0,0,1-.68,1.41,3.08,3.08,0,0,1-1.85.49Zm.75-3.8h1.93a2.53,2.53,0,0,0,1.33-.32,1,1,0,0,0,.46-.9,1,1,0,0,0-.5-.91A2.92,2.92,0,0,0,221,48h-1.77Zm0,.65v2.5h2.21a2.33,2.33,0,0,0,1.31-.32,1.1,1.1,0,0,0,.47-1,1.05,1.05,0,0,0-.47-.9,2.29,2.29,0,0,0-1.31-.33Z"/><path class="cls-2" d="M230,54.18c-.05-.23-.08-.43-.1-.6a3,3,0,0,1,0-.52,3,3,0,0,1-1,.9,2.86,2.86,0,0,1-1.43.35,2.14,2.14,0,0,1-1.56-.53,1.88,1.88,0,0,1-.55-1.43,1.76,1.76,0,0,1,.82-1.52,3.84,3.84,0,0,1,2.22-.57h1.51v-.85a1.46,1.46,0,0,0-.47-1.16,1.92,1.92,0,0,0-1.32-.42,2.16,2.16,0,0,0-1.32.4,1.2,1.2,0,0,0-.52,1h-.7v0a1.62,1.62,0,0,1,.7-1.38,2.88,2.88,0,0,1,1.88-.6,2.78,2.78,0,0,1,1.83.57,2.05,2.05,0,0,1,.69,1.66V52.8a5.37,5.37,0,0,0,0,.7,3.91,3.91,0,0,0,.14.68Zm-2.49-.54a2.8,2.8,0,0,0,1.45-.38,2.28,2.28,0,0,0,.9-1V50.84h-1.53a2.81,2.81,0,0,0-1.65.44,1.33,1.33,0,0,0-.62,1.1,1.18,1.18,0,0,0,.39.91A1.52,1.52,0,0,0,227.53,53.64Z"/><path class="cls-3" d="M8.72,75.78a6.69,6.69,0,0,1-.9-.06,6.49,6.49,0,0,1-3.36-1.67,9.76,9.76,0,0,1-2.78-6.13,26.88,26.88,0,0,1,.59-7.81c.4-2.22.93-4.62,1.65-7.55.17-.69.34-1.39.52-2.08l.42-1.67c0-.15.07-.3.11-.46.11-.46.23-.94.37-1.42l0-.14a2.45,2.45,0,0,0,.12-.51,2.86,2.86,0,0,0,0-.48v-.17a28.29,28.29,0,0,1,0-3.92c0-1.3.11-2.41.19-3.45a6.9,6.9,0,0,1-1.73-1.92,7.41,7.41,0,0,1-.61-6.24,9.11,9.11,0,0,1,1-1.81,9.06,9.06,0,0,0,.56-.92,1.7,1.7,0,0,0-.22-.46l-.55-1-.25-.44C1.82,22-.24,17.92,0,13.43.26,9.29,2.08,5.69,4.9,3.8a9.32,9.32,0,0,1,5.33-1.51,18.23,18.23,0,0,1,6.06,1.18l1,.36a10.8,10.8,0,0,0,3.66.93,4.6,4.6,0,0,0,.84-.08,8.64,8.64,0,0,0,2.55-1.12L25.23,3c.64-.38,1.3-.77,2-1.13A14.56,14.56,0,0,1,33.46,0h.47A14.68,14.68,0,0,1,40,1.48a16.39,16.39,0,0,1,2.91,1.64l.25.18.19.15c.18-.06.36-.14.56-.22s.56-.23.88-.33a7.71,7.71,0,0,1,2.08-.31,5.91,5.91,0,0,1,1.54.2,6.48,6.48,0,0,1,2.79,1.72,13.14,13.14,0,0,1,3,5.36,34.91,34.91,0,0,1,1.41,6.61,76.93,76.93,0,0,1,.42,13.76v.22a4.4,4.4,0,0,1,1.05-.57,6.07,6.07,0,0,1,2.27-.42,9.29,9.29,0,0,1,3.21.64,6.38,6.38,0,0,1,1.85-3.65,4.12,4.12,0,0,1,2.72-1,4.05,4.05,0,0,1,2.47.82,3.82,3.82,0,0,1,.75,5.05,5.83,5.83,0,0,1-2.77,2l-.38.17a8.19,8.19,0,0,1,1.06,2.21,9.68,9.68,0,0,1-.74,7.16,9.14,9.14,0,0,1-5,4.29,10.08,10.08,0,0,1-3.52.64h-.34a5.31,5.31,0,0,1-3.49-1.29l-.2-.21-.29.07-.37,0c-.12.93-.29,1.86-.46,2.76,0,.26-.09.51-.14.77a91.62,91.62,0,0,1-3.66,14.62,37.7,37.7,0,0,1-1.42,3.5,12.89,12.89,0,0,1-1.94,3.15,4.21,4.21,0,0,1-3.06,1.57l-.38,0a4.88,4.88,0,0,1-3.1-2,16.43,16.43,0,0,1-1.94-3.14c-.6-1.19-1.13-2.41-1.61-3.49l-.17-.38c-.44-1-.9-2.05-1.37-3.06-.26-.55-.53-1.07-.84-1.66L34,58.38l-.16-.32-.31.18c-.47.29-1,.63-1.56,1-.91.6-1.84,1.28-2.93,2.15-1.92,1.51-3.74,3.14-5.6,4.81l-.84.77c-1.57,1.42-3.2,2.89-4.87,4.27a23.17,23.17,0,0,1-5.92,3.9A8.17,8.17,0,0,1,8.72,75.78Z"/><path class="cls-4" d="M69.32,27.21a3.25,3.25,0,0,0-4,.15c-1.2,1.06-1.53,2.76-1.74,4.26-1.79-.85-3.93-1.42-5.85-.67a3.46,3.46,0,0,0-1.19.76,1.87,1.87,0,0,0-.42.59c-.06.16-.08.36-.24.46a.43.43,0,0,1-.5-.11c-.14-.17-.06-.43,0-.63.06-.53.08-1.07.11-1.61A76.17,76.17,0,0,0,55,16.82a34.5,34.5,0,0,0-1.37-6.44,12.59,12.59,0,0,0-2.82-5,5.48,5.48,0,0,0-2.39-1.48A5.71,5.71,0,0,0,45.3,4c-.5.14-.95.38-1.44.54a.67.67,0,0,1-.6,0c-.22-.12-.41-.3-.62-.44a16.31,16.31,0,0,0-2.76-1.56,13.53,13.53,0,0,0-6.15-1.38,14,14,0,0,0-5.87,1.77C26.88,3.43,25.94,4,25,4.57a9.48,9.48,0,0,1-2.83,1.22c-2.07.41-4-.57-5.94-1.24-3.36-1.19-7.45-1.89-10.59.22-2.91,2-4.28,5.55-4.48,8.94-.24,4.16,1.65,8,3.63,11.56l.8,1.42c.24.42.48.85.24,1.32a20.41,20.41,0,0,0-1.47,2.62,6.49,6.49,0,0,0,.53,5.47A19.33,19.33,0,0,1,6.55,42a26.64,26.64,0,0,0,0,3.79,4.52,4.52,0,0,1,0,.82,3.45,3.45,0,0,1-.21.84c-.18.61-.32,1.22-.47,1.83C5.65,50.5,5.33,51.75,5,53c-.61,2.49-1.18,5-1.64,7.5a26.26,26.26,0,0,0-.58,7.55,8.82,8.82,0,0,0,2.5,5.57,5.62,5.62,0,0,0,2.88,1.43,6.64,6.64,0,0,0,3.49-.54,22.23,22.23,0,0,0,5.69-3.76c1.95-1.61,3.81-3.32,5.68-5s3.69-3.32,5.64-4.85c1-.77,2-1.51,3-2.2q.78-.51,1.59-1l.75-.46c.2-.13.37-.23.51,0,.3.52.53,1.08.81,1.61s.58,1.12.85,1.69c.54,1.15,1,2.3,1.55,3.46s1,2.32,1.59,3.45a15.68,15.68,0,0,0,1.83,3,4.16,4.16,0,0,0,2.51,1.67,3.22,3.22,0,0,0,2.66-1.26,11.91,11.91,0,0,0,1.8-2.93c.52-1.11,1-2.26,1.39-3.42A91,91,0,0,0,53.14,50c.22-1.24.47-2.48.62-3.74,0-.24.07-.39.32-.46a6.59,6.59,0,0,1,.76-.1c.24,0,.5-.17.74-.08s.37.31.53.47a4.42,4.42,0,0,0,2.9,1,9.35,9.35,0,0,0,3.51-.58A8.29,8.29,0,0,0,67,42.71a8.84,8.84,0,0,0,.67-6.48,7.1,7.1,0,0,0-1.56-2.75c1.24-.83,2.9-1.08,3.75-2.42A2.91,2.91,0,0,0,69.32,27.21Z"/><path class="cls-1" d="M36.75,23.88c-.31-3.54-2.18-6.27-4.16-6.1s-3.35,3.19-3,6.73,2.17,6.27,4.16,6.1S37.06,27.42,36.75,23.88Zm-.22,1.84c-.2-2.49-1.83-4.39-3.62-4.23s-3.06,2.33-2.84,4.76c-1-4,.39-8.25,2.7-8.25C34.89,18,36.85,21.74,36.53,25.72Z"/><path class="cls-1" d="M45.45,17.77c-2-.11-3.76,2.69-3.94,6.24s1.28,6.51,3.27,6.61,3.76-2.69,3.95-6.24S47.45,17.87,45.45,17.77Zm2.81,8.39c.14-2.5-1.21-4.59-3-4.68s-3.36,1.85-3.47,4.36c-.7-6.1,3.65-10.54,5.91-6A10,10,0,0,1,48.26,26.16Z"/><ellipse class="cls-5" cx="33.3" cy="25.96" rx="1.58" ry="2.03" transform="translate(-2.14 3) rotate(-5)"/><circle class="cls-4" cx="33.82" cy="25.29" r="0.34"/><ellipse class="cls-5" cx="45.02" cy="25.97" rx="2.03" ry="1.58" transform="translate(16.74 69.57) rotate(-87)"/><circle class="cls-4" cx="45.79" cy="25.29" r="0.34"/><path class="cls-2" d="M30.54,36.43c2.33,4.39,4.58,12.21,7.94,12.41C42,49.05,44.19,41,46.54,37.2A14.57,14.57,0,0,1,38.26,39,14.72,14.72,0,0,1,30.54,36.43Z"/><path class="cls-6" d="M36.08,42.1a6.58,6.58,0,0,0-2.76.42c1.49,3.27,3.12,6.2,5.16,6.32,1.35.08,2.51-1.06,3.55-2.71A7.39,7.39,0,0,0,36.08,42.1Z"/><path class="cls-1" d="M18,46c1,.73,3.41,2.19,4.17.41.66-1.52-.58-3.16-1.48-4.28a17.36,17.36,0,0,0-2.14-2.23c.63.84,1.24,1.68,1.81,2.56A8.29,8.29,0,0,1,21.58,45a1.42,1.42,0,0,1-.1,1.19,1.1,1.1,0,0,1-1,.31A5.79,5.79,0,0,1,18,45.32c-1-.65-1.92-1.36-2.84-2.08A16.2,16.2,0,0,0,18,46Z"/><path class="cls-1" d="M14.85,50.78a1.83,1.83,0,0,0,2-.29,2.4,2.4,0,0,0,.46-2,10.15,10.15,0,0,0-.74-2.58,17.23,17.23,0,0,0-1.39-2.66c.35,1,.69,1.94,1,2.92a8.78,8.78,0,0,1,.51,2.91,1.29,1.29,0,0,1-.4,1,1.21,1.21,0,0,1-1.11.1,3.86,3.86,0,0,1-1.71-1.59,22.94,22.94,0,0,1-1.67-2.88,10.6,10.6,0,0,0,1.47,3.5A3.8,3.8,0,0,0,14.85,50.78Z"/><path class="cls-1" d="M69.32,27.21a3.25,3.25,0,0,0-4,.15c-1.2,1.06-1.53,2.76-1.74,4.26-4.36-2.09-7-.47-7.46.68-.06.16-.08.36-.24.46a.43.43,0,0,1-.5-.11c-.14-.17-.06-.43,0-.63a78.17,78.17,0,0,0-.3-15.2c-.48-3.75-1.51-8.77-4.19-11.45s-5.42-1.33-7-.83c-.53.18-.66-.06-1.22-.46a15.82,15.82,0,0,0-8.91-2.94c-3.64.15-6.6,2.19-8.74,3.43-3.68,2.12-4.76,1.4-8.77,0-3.36-1.19-7.45-1.89-10.59.22-2.91,2-4.28,5.55-4.48,8.94-.24,4.16,1.65,8,3.63,11.56,1,1.8,1.33,2.16,1,2.74a20.41,20.41,0,0,0-1.47,2.62A6.48,6.48,0,0,0,7.19,38.4l.11-.28c-1.93-1.59-3.17-3.84-2.95-5.67a6.37,6.37,0,0,1,1.33-3.29,3,3,0,0,0,.9-1.39A3.22,3.22,0,0,0,6,25.92c-3.23-6.29-4.45-10.46-2.65-15A8.83,8.83,0,0,1,7.56,6c2.09-1,4.53-.67,6.7-.14,2.38.57,4.71,1.8,7.22,1.54,4.19-.42,7-5.37,12.8-5.56,3.09-.11,6.32,1.34,8.9,3-1.59.77-3,1.83-4.7,2.46-4.19,1.58-9.49-2.4-16,.63a16.24,16.24,0,0,0-4.65,3.27c8.44-6.83,14.39-1.9,19.39-2.39S48.69-.57,52.29,11c5.28,16.9-3.19,60.46-8.55,59.77-2.62-.34-6.38-9.6-9.16-13.84a17.26,17.26,0,0,1,7-2.17C29.14,54,15.5,73.25,9.06,73.24A4.47,4.47,0,0,1,5.24,70.3a12.72,12.72,0,0,1-.64-6.15C4.91,60.57,5.79,56.46,7.2,49a5.68,5.68,0,0,0,.88,1.86,1.72,1.72,0,0,0,1.58.78c1.65-.31,2.06-4.24,2.08-5.92-.52,2.76-1.51,6.93-3.19,4.7A7.5,7.5,0,0,1,7.42,47,24.44,24.44,0,0,1,7,42.85c0-3,.09-5.27,2.26-7a7.31,7.31,0,0,1,2.89-1.16,6.28,6.28,0,0,1,1.3,0c3,.23,4.28,1.36,9.1,1.77a10.43,10.43,0,0,1,1.24.13c1,.2.71,1.34,0,2.09-1.12,1.12-3.7,1.25-5.27,1.17,5.18.9,6.79-1.58,6.44-2.94-.28-1.11-2.14-1.06-3.48-1.21C17.91,35.31,16,33.93,12,34.16a7.5,7.5,0,0,1,2.56-5.55,8,8,0,0,0-3.14,5.72,7.25,7.25,0,0,0-2.51,1.35A6.05,6.05,0,0,0,6.71,39.8a35.92,35.92,0,0,0-.07,6.78S5.34,51.68,5,53C3.09,60.85.91,69.57,5.3,73.62c6.61,6.09,15.91-8,26.38-14.93,1-.62,1.93-1.19,2.34-1.45s.4-.13,1.32,1.63c.29.56.58,1.12.85,1.69,2.28,4.87,4.35,11.18,7.48,11.56,5.14.62,8.55-17,9.47-22.09.22-1.24.47-2.48.62-3.74.07-.63.51-.46,1.08-.56.24,0,.5-.17.74-.08s.37.31.53.47c1.48,1.44,4.46,1.17,6.41.45,5.84-2.15,7-9.4,3.59-13.09,1.24-.83,2.9-1.08,3.75-2.42A2.91,2.91,0,0,0,69.32,27.21Zm-14,18-1.45.26c.68-4.46,1.09-8.39,1.37-12.3.15,0,.36,0,.46.12s0,.31,0,.45A2.57,2.57,0,0,0,57.56,36c-3,1-3.18,4.24-.49,5.5A2.6,2.6,0,0,0,55.34,45.18Zm11.91-5.75a7.57,7.57,0,0,1-7.19,7c-4.32.43-5-2.48-3.71-3.77a4.12,4.12,0,0,1,2.22-1c.11,0,.27,0,.23-.19s-.86-.21-1.74-.67c-1.77-.91-1.83-4,1.73-4.62.14,0,.56,0,.6-.21s-.83-.36-1-.4c-3.16-.76-2.45-4.4,1.31-4.28C63.64,31.43,67.8,34.33,67.25,39.43Zm2.24-8.85C69,31.65,67.9,32,65.92,33.27a15.44,15.44,0,0,0-2.08-1.46,7.19,7.19,0,0,1,1.41-3.61,2.76,2.76,0,0,1,3.21-.73A2.38,2.38,0,0,1,69.49,30.58Z"/><path class="cls-1" d="M35.4,15.36a1.33,1.33,0,0,0-.54-1.8c-1.25-.67-6.42-.31-7.79,6C29.1,14.47,32.94,13.6,35.4,15.36Z"/><path class="cls-1" d="M47.9,15.15a8.19,8.19,0,0,1,2.35,2.23c-1.88-4.32-5.9-4.29-7-3.73a1.19,1.19,0,0,0-.49,1.62A4.77,4.77,0,0,1,47.9,15.15Z"/><path class="cls-1" d="M27.72,33.91a33.74,33.74,0,0,1,4.3,6.5c1,2.26,2.16,5.54,3.91,7.44s3.94,2,5.93-.71c1.59-2.21,2.45-5,3.8-7.28a15.77,15.77,0,0,1,3.09-4.09c.15,0,.27.09.38.17a3.7,3.7,0,0,0,2.82.68,6.89,6.89,0,0,1-4.68-4.21,3.48,3.48,0,0,0,.7,2.44c.21.25.7.43.22.8s-.79.63-1.2.91c-4.37,3-13.3,3.3-18.26-2.24-.92-1-.42-.76.07-1.87a3.67,3.67,0,0,0,.33-1.73,6.89,6.89,0,0,1-4.69,4.2A3.94,3.94,0,0,0,27.72,33.91ZM45.86,38c-2.78,4.66-5.27,13.29-9.13,9.43-2-2-3.14-5.58-5.38-9.93A15.35,15.35,0,0,0,45.86,38Z"/><path class="cls-1" d="M39.65,29.81c.17-.12,2.42,1.06,2.42,2.38,0,1.11-2.47,2.35-2.6,2.17s1.8-1.48,1.79-2.15S39.54,29.89,39.65,29.81Z"/><path class="cls-1" d="M34.21,47.22c.41.42.79.85,1.18,1.26a8.56,8.56,0,0,0,1.26,1.09,3.46,3.46,0,0,0,.7.39,2.45,2.45,0,0,0,.78.12,5,5,0,0,0,1.66-.26,3.19,3.19,0,0,1-1.64.61,2.27,2.27,0,0,1-.93-.07A3.15,3.15,0,0,1,36.4,50a6,6,0,0,1-1.27-1.24A8.41,8.41,0,0,1,34.21,47.22Z"/></g></g></g></svg>