<svg xmlns="http://www.w3.org/2000/svg" viewBox="0 0 252.2 215"><defs><style>.cls-1,.cls-2{fill:none;stroke:#fff;stroke-width:5px;}.cls-1{stroke-miterlimit:10;}.cls-2{stroke-linejoin:round;}</style></defs><title>civil</title><g id="Слой_2" data-name="Слой 2"><g id="Слой_1-2" data-name="Слой 1"><polyline class="cls-1" points="0 212.5 162.51 212.5 162.51 2.5 35.51 2.5 35.51 100.27"/><rect class="cls-1" x="59.74" y="22.44" width="24.77" height="24.77"/><rect class="cls-1" x="111.83" y="22.44" width="24.77" height="24.77"/><rect class="cls-1" x="59.74" y="67.2" width="24.77" height="24.77"/><rect class="cls-1" x="111.83" y="67.2" width="24.77" height="24.77"/><rect class="cls-1" x="111.83" y="111.97" width="24.77" height="24.77"/><rect class="cls-1" x="111.83" y="156.73" width="24.77" height="24.77"/><rect class="cls-1" x="162.51" y="101.97" width="87.19" height="110.53"/><rect class="cls-1" x="185.17" y="146.73" width="41.87" height="65.77"/><rect class="cls-1" x="175.98" y="115.78" width="60.26" height="12.38"/><path class="cls-2" d="M78.94,155.11c0,15.8-12.15,28.6-27.13,28.6s-27.12-12.8-27.12-28.6c0-23.32,27.12-49.35,27.12-49.35S78.94,131.79,78.94,155.11Z"/><rect class="cls-1" x="51.81" y="195.24" width="110.7" height="17.26"/><line class="cls-1" x1="51.81" y1="164.18" x2="51.81" y2="212.5"/></g></g></svg>