<svg xmlns="http://www.w3.org/2000/svg" viewBox="0 0 277.22 220.96"><defs><style>.cls-1,.cls-2{fill:none;stroke:#fff;stroke-width:5px;}.cls-1{stroke-miterlimit:10;}.cls-2{stroke-linejoin:round;}.cls-3{fill:#fff;}</style></defs><title>energy</title><g id="Слой_2" data-name="Слой 2"><g id="Слой_1-2" data-name="Слой 1"><polygon class="cls-1" points="134.37 69.52 65.6 69.52 33.14 218.46 166.82 218.46 134.37 69.52"/><line class="cls-1" x1="59.92" y1="91.06" x2="106.82" y2="91.06"/><line class="cls-1" x1="46.38" y1="152.29" x2="106.82" y2="152.29"/><line class="cls-1" x1="69.6" y1="176.96" x2="87.65" y2="176.96"/><rect class="cls-1" x="65.67" y="55.3" width="68.63" height="14.22"/><polyline class="cls-1" points="151.78 149.41 274.72 149.41 274.72 218.46 166.82 218.46"/><rect class="cls-1" x="186.74" y="189.85" width="53.03" height="28.61"/><path class="cls-2" d="M208,35.25H191a25.41,25.41,0,0,0-48.19-16.09h0a14.09,14.09,0,0,0-22.33,16.1h-13"/><rect class="cls-3" x="195.04" y="161.21" width="5.41" height="5.41"/><rect class="cls-3" x="210.55" y="161.21" width="5.41" height="5.41"/><rect class="cls-3" x="226.05" y="161.21" width="5.41" height="5.41"/><line class="cls-1" x1="39.22" y1="218.46" y2="218.46"/></g></g></svg>