<svg xmlns="http://www.w3.org/2000/svg" viewBox="0 0 742.55 166.39"><defs><style>.cls-1{opacity:0.35;}.cls-2,.cls-3{fill:none;stroke:#fff;stroke-width:5px;}.cls-2{stroke-miterlimit:10;}.cls-3{stroke-linejoin:round;}.cls-4{fill:#fff;}</style></defs><title>Icon_Industries</title><g id="Слой_2" data-name="Слой 2"><g id="Слой_1-2" data-name="Слой 1"><g class="cls-1"><polyline class="cls-2" points="0 163.89 117.41 163.89 117.41 12.18 25.66 12.18 25.66 82.81"/><rect class="cls-2" x="43.16" y="26.58" width="17.89" height="17.89"/><rect class="cls-2" x="80.79" y="26.58" width="17.89" height="17.89"/><rect class="cls-2" x="43.16" y="58.92" width="17.89" height="17.89"/><rect class="cls-2" x="80.79" y="58.92" width="17.89" height="17.89"/><rect class="cls-2" x="80.79" y="91.26" width="17.89" height="17.89"/><rect class="cls-2" x="80.79" y="123.6" width="17.89" height="17.89"/><rect class="cls-2" x="117.41" y="84.04" width="62.99" height="79.86"/><rect class="cls-2" x="133.78" y="116.38" width="30.25" height="47.51"/><rect class="cls-2" x="127.14" y="94.01" width="43.53" height="8.95"/><path class="cls-3" d="M57,122.43c0,11.42-8.77,20.67-19.6,20.67s-19.6-9.25-19.6-20.67c0-16.85,19.6-35.66,19.6-35.66S57,105.58,57,122.43Z"/><rect class="cls-2" x="37.43" y="151.43" width="79.98" height="12.47"/><line class="cls-2" x1="37.43" y1="128.98" x2="37.43" y2="163.89"/><polygon class="cls-2" points="638.65 56.29 588.96 56.29 565.52 163.89 662.1 163.89 638.65 56.29"/><line class="cls-2" x1="584.86" y1="71.85" x2="618.75" y2="71.85"/><line class="cls-2" x1="575.08" y1="116.09" x2="618.75" y2="116.09"/><line class="cls-2" x1="591.86" y1="133.91" x2="604.89" y2="133.91"/><rect class="cls-2" x="589.01" y="46.01" width="49.59" height="10.28"/><polyline class="cls-2" points="651.23 114.01 740.05 114.01 740.05 163.89 662.1 163.89"/><rect class="cls-2" x="676.48" y="143.22" width="38.31" height="20.67"/><path class="cls-3" d="M691.84,31.53H679.59A18.36,18.36,0,0,0,644.77,19.9h0a10.18,10.18,0,0,0-16.13,11.63h-9.42"/><rect class="cls-4" x="682.48" y="122.53" width="3.91" height="3.91"/><rect class="cls-4" x="693.68" y="122.53" width="3.91" height="3.91"/><rect class="cls-4" x="704.88" y="122.53" width="3.91" height="3.91"/><line class="cls-2" x1="569.91" y1="163.89" x2="541.57" y2="163.89"/><polygon class="cls-2" points="453.92 25.94 453.92 163.89 401.59 163.89 401.59 69.59 372.74 77.8 372.74 25.94 453.92 25.94"/><polygon class="cls-2" points="401.59 69.59 401.59 163.89 302.3 163.89 302.3 97.85 321.39 92.42 341.43 86.72 372.74 77.8 401.59 69.59"/><polygon class="cls-2" points="341.43 86.72 321.39 92.42 323.71 2.5 339.25 2.5 341.43 86.72"/><line class="cls-2" x1="320.19" y1="112.3" x2="344.49" y2="112.3"/><line class="cls-2" x1="359.4" y1="112.3" x2="383.69" y2="112.3"/><line class="cls-2" x1="320.19" y1="123.04" x2="344.49" y2="123.04"/><line class="cls-2" x1="359.4" y1="123.04" x2="383.69" y2="123.04"/><line class="cls-2" x1="320.19" y1="133.77" x2="344.49" y2="133.77"/><line class="cls-2" x1="359.4" y1="133.77" x2="383.69" y2="133.77"/><rect class="cls-2" x="331.28" y="147.64" width="41.33" height="16.26"/><line class="cls-2" x1="444.19" y1="43.54" x2="433.12" y2="43.54"/><line class="cls-2" x1="444.19" y1="56.71" x2="433.12" y2="56.71"/><line class="cls-2" x1="444.19" y1="69.88" x2="433.12" y2="69.88"/><line class="cls-2" x1="444.19" y1="83.04" x2="433.12" y2="83.04"/><line class="cls-2" x1="444.19" y1="96.21" x2="433.12" y2="96.21"/><line class="cls-2" x1="444.19" y1="109.38" x2="433.12" y2="109.38"/><line class="cls-2" x1="444.19" y1="122.55" x2="433.12" y2="122.55"/><line class="cls-2" x1="444.19" y1="135.72" x2="433.12" y2="135.72"/><line class="cls-2" x1="302.3" y1="163.89" x2="285.69" y2="163.89"/></g></g></g></svg>