<svg xmlns="http://www.w3.org/2000/svg" viewBox="0 0 32.14 52.85"><defs><style>.cls-1{fill:#fff;}</style></defs><title>icon_phone</title><g id="Слой_2" data-name="Слой 2"><g id="Слой_1-2" data-name="Слой 1"><path class="cls-1" d="M26.44,0H5.7A5.7,5.7,0,0,0,0,5.7V47.15a5.7,5.7,0,0,0,5.7,5.7H26.44a5.7,5.7,0,0,0,5.7-5.7V5.7A5.7,5.7,0,0,0,26.44,0ZM16.07,49.18a2.63,2.63,0,1,1,2.62-2.63A2.62,2.62,0,0,1,16.07,49.18Zm10.72-9.63a1.39,1.39,0,0,1-1.39,1.39H6.73a1.39,1.39,0,0,1-1.38-1.39V7.2A1.38,1.38,0,0,1,6.73,5.81H25.4A1.39,1.39,0,0,1,26.79,7.2Z"/></g></g></svg>