<svg xmlns="http://www.w3.org/2000/svg" viewBox="0 0 235.35 228.39"><defs><style>.cls-1{fill:none;stroke:#fff;stroke-miterlimit:10;stroke-width:5px;}</style></defs><title>industry</title><g id="Слой_2" data-name="Слой 2"><g id="Слой_1-2" data-name="Слой 1"><polygon class="cls-1" points="232.85 34.94 232.85 225.89 160.42 225.89 160.42 95.36 120.49 106.73 120.49 34.94 232.85 34.94"/><polygon class="cls-1" points="160.42 95.36 160.42 225.89 22.99 225.89 22.99 134.48 49.41 126.96 77.14 119.07 120.49 106.73 160.42 95.36"/><polygon class="cls-1" points="77.14 119.07 49.41 126.96 52.62 2.5 74.14 2.5 77.14 119.07"/><line class="cls-1" x1="47.76" y1="154.49" x2="81.38" y2="154.49"/><line class="cls-1" x1="102.02" y1="154.49" x2="135.65" y2="154.49"/><line class="cls-1" x1="47.76" y1="169.34" x2="81.38" y2="169.34"/><line class="cls-1" x1="102.02" y1="169.34" x2="135.65" y2="169.34"/><line class="cls-1" x1="47.76" y1="184.2" x2="81.38" y2="184.2"/><line class="cls-1" x1="102.02" y1="184.2" x2="135.65" y2="184.2"/><rect class="cls-1" x="63.1" y="203.39" width="57.21" height="22.5"/><line class="cls-1" x1="219.39" y1="59.3" x2="204.07" y2="59.3"/><line class="cls-1" x1="219.39" y1="77.53" x2="204.07" y2="77.53"/><line class="cls-1" x1="219.39" y1="95.76" x2="204.07" y2="95.76"/><line class="cls-1" x1="219.39" y1="113.98" x2="204.07" y2="113.98"/><line class="cls-1" x1="219.39" y1="132.21" x2="204.07" y2="132.21"/><line class="cls-1" x1="219.39" y1="150.44" x2="204.07" y2="150.44"/><line class="cls-1" x1="219.39" y1="168.66" x2="204.07" y2="168.66"/><line class="cls-1" x1="219.39" y1="186.89" x2="204.07" y2="186.89"/><line class="cls-1" x1="22.99" y1="225.89" y2="225.89"/></g></g></svg>