<?xml version="1.0" encoding="utf-8"?>
<!-- Generator: Adobe Illustrator 23.0.0, SVG Export Plug-In . SVG Version: 6.00 Build 0)  -->
<svg version="1.1" id="Слой_1" xmlns="http://www.w3.org/2000/svg" xmlns:xlink="http://www.w3.org/1999/xlink" x="0px" y="0px"
	 viewBox="0 0 494 130.7" style="enable-background:new 0 0 494 130.7;" xml:space="preserve">
<style type="text/css">
	.st0{fill:#FFFFFF;}
</style>
<g>
	
		<image style="overflow:visible;opacity:0.25;" width="463" height="123" xlink:href="11E68A95.png"  transform="matrix(1 0 0 1 16.36 4.2174)">
	</image>
	<g>
		<g>
			<path class="st0" d="M239.7,117.3h22.1l3.3-10h22.9l3.3,10h22.1l-26.3-70.9h-21.7L239.7,117.3z M273.9,79.7
				c1.3-4.6,1.7-5.8,2.9-10.8c0.8,4.6,1.3,5.8,2.5,10.8c0,0,2.5,7.9,3.8,12.1h-13.3C272.2,84.7,273.9,79.7,273.9,79.7z"/>
			<path class="st0" d="M433.2,73.1l-24.6,27.1v17.5H472V99.3h-20.4c-4.2,0-7.1,0-15.4,0.4c5.8-5.8,7.9-7.9,11.3-11.7l22.9-25V46.4
				h-60.1v18.4H429c7.5,0,5,0,12.9-0.4C437.4,68.5,435.7,70.1,433.2,73.1z"/>
			<polygon class="st0" points="81.6,98.9 43.3,98.9 43.3,89.7 81.6,89.7 81.6,73.1 43.3,73.1 43.3,63.5 81.6,63.5 81.6,46.4 
				22,46.4 22,117.3 81.6,117.3 			"/>
			<path class="st0" d="M369.4,117.3h20.9V46.4h-20.9v23.8c0,5.4,0,10.8,0.4,16.3c-2.1-4.6-4.6-9.2-7.1-13.3l-15-26.7H326v70.9h20.9
				V92.7c0-5.4,0-10.8-0.8-16.3c1.7,3.8,3.3,7.1,5.4,10.8L369.4,117.3z"/>
			<path class="st0" d="M165.5,67.2c0-16.3-14.2-20.9-25.4-20.9h-38.4v70.9h21.7v-25h9.2c10,0,11.3,6.3,12.1,14.2l0.4,10.8h21.3
				l-1.3-15.4c-0.4-6.3-3.3-15.8-10.4-17.5C161.3,81.4,165.5,74.7,165.5,67.2z M135.4,77.2h-12.1V62.6h10.8c6.7,0,10,2.5,10,7.1
				C144.2,75.1,140.4,77.2,135.4,77.2z"/>
			<polygon class="st0" points="69.1,29.3 75.4,8 42,8 36.2,29.3 			"/>
			<polygon class="st0" points="217.6,117.3 217.6,64.3 237.6,64.3 237.6,46.4 176.3,46.4 176.3,64.3 195.9,64.3 195.9,117.3 			"/>
		</g>
	</g>
</g>
</svg>
